<svg width="16" height="16" viewBox="0 0 16 16" fill="none" xmlns="http://www.w3.org/2000/svg">
<path d="M14.125 14.125L15 15M8 9.75C10.4162 9.75 12.375 7.79125 12.375 5.375C12.375 2.95875 10.4162 1 8 1C5.58375 1 3.625 2.95875 3.625 5.375C3.625 7.79125 5.58375 9.75 8 9.75ZM8 9.75C4.13401 9.75 1 12.1005 1 15M14.125 12.375C14.125 13.3415 13.3415 14.125 12.375 14.125C11.4085 14.125 10.625 13.3415 10.625 12.375C10.625 11.4085 11.4085 10.625 12.375 10.625C13.3415 10.625 14.125 11.4085 14.125 12.375Z" stroke="#FBFBFC" stroke-linecap="round"/>
</svg>
