<svg width="14" height="14" viewBox="0 0 14 14" fill="none" xmlns="http://www.w3.org/2000/svg">
<path d="M7.00033 7.20825C6.38226 7.20825 5.77807 7.02498 5.26417 6.6816C4.75027 6.33822 4.34973 5.85016 4.1132 5.27914C3.87668 4.70812 3.81479 4.07979 3.93537 3.4736C4.05595 2.86741 4.35358 2.31058 4.79062 1.87354C5.22766 1.43651 5.78448 1.13888 6.39067 1.0183C6.99686 0.897721 7.62519 0.959606 8.19621 1.19613C8.76723 1.43265 9.25529 1.83319 9.59867 2.3471C9.94205 2.861 10.1253 3.46519 10.1253 4.08325C10.1253 4.91205 9.79609 5.70691 9.21003 6.29296C8.62398 6.87901 7.82913 7.20825 7.00033 7.20825ZM7.00033 2.20825C6.62949 2.20825 6.26697 2.31822 5.95863 2.52425C5.65029 2.73028 5.40997 3.02311 5.26805 3.36572C5.12614 3.70833 5.08901 4.08533 5.16135 4.44905C5.2337 4.81276 5.41228 5.14685 5.6745 5.40908C5.93672 5.6713 6.27082 5.84988 6.63453 5.92223C6.99825 5.99457 7.37525 5.95744 7.71786 5.81553C8.06047 5.67361 8.3533 5.43329 8.55933 5.12495C8.76536 4.81661 8.87533 4.45409 8.87533 4.08325C8.87533 3.58597 8.67778 3.10906 8.32615 2.75743C7.97452 2.4058 7.49761 2.20825 7.00033 2.20825ZM12.8337 13.0416C12.6686 13.0394 12.5108 12.9729 12.3941 12.8561C12.2774 12.7394 12.2108 12.5817 12.2087 12.4166C12.2087 10.7916 11.3253 9.70825 7.00033 9.70825C2.67533 9.70825 1.79199 10.7916 1.79199 12.4166C1.79199 12.5823 1.72614 12.7413 1.60893 12.8585C1.49172 12.9757 1.33275 13.0416 1.16699 13.0416C1.00123 13.0416 0.842261 12.9757 0.72505 12.8585C0.60784 12.7413 0.541992 12.5823 0.541992 12.4166C0.541992 8.45825 5.06699 8.45825 7.00033 8.45825C8.93366 8.45825 13.4587 8.45825 13.4587 12.4166C13.4565 12.5817 13.39 12.7394 13.2732 12.8561C13.1565 12.9729 12.9987 13.0394 12.8337 13.0416Z" fill="white"/>
</svg>
