<svg width="56" height="56" viewBox="0 0 56 56" fill="none" xmlns="http://www.w3.org/2000/svg">
<rect width="56" height="56" rx="28" fill="white" fill-opacity="0.05"/>
<rect x="0.5" y="0.5" width="55" height="55" rx="27.5" stroke="white" stroke-opacity="0.06"/>
<path d="M35.9757 36.8242C36.2101 37.0586 36.5899 37.0586 36.8243 36.8242C37.0586 36.5899 37.0586 36.21 36.8243 35.9757L35.9757 36.8242ZM22.8611 28.8333C22.738 29.141 22.8877 29.4901 23.1953 29.6132C23.503 29.7363 23.8522 29.5866 23.9753 29.279L22.8611 28.8333ZM24.7604 25.7005L25.3175 25.9234L24.7604 25.7005ZM25.344 25.5369L25.704 25.0569L25.344 25.5369ZM27.6014 27.2299L27.9614 26.7499H27.9614L27.6014 27.2299ZM28.185 27.0663L27.6279 26.8434L27.6279 26.8434L28.185 27.0663ZM30.0844 23.9335C30.2074 23.6258 30.0578 23.2767 29.7501 23.1536C29.4424 23.0305 29.0933 23.1802 28.9702 23.4878L30.0844 23.9335ZM32.8353 26.5176C32.8353 30.0068 30.0068 32.8353 26.5176 32.8353V34.0353C30.6695 34.0353 34.0353 30.6695 34.0353 26.5176H32.8353ZM26.5176 32.8353C23.0285 32.8353 20.2 30.0068 20.2 26.5176H19C19 30.6695 22.3658 34.0353 26.5176 34.0353V32.8353ZM20.2 26.5176C20.2 23.0285 23.0285 20.2 26.5176 20.2V19C22.3658 19 19 22.3657 19 26.5176H20.2ZM26.5176 20.2C30.0068 20.2 32.8353 23.0285 32.8353 26.5176H34.0353C34.0353 22.3657 30.6695 19 26.5176 19V20.2ZM31.0346 31.8831L35.9757 36.8242L36.8243 35.9757L31.8831 31.0345L31.0346 31.8831ZM23.9753 29.279L25.3175 25.9234L24.2033 25.4777L22.8611 28.8333L23.9753 29.279ZM24.984 26.0169L27.2414 27.7099L27.9614 26.7499L25.704 25.0569L24.984 26.0169ZM28.7421 27.2891L30.0844 23.9335L28.9702 23.4878L27.6279 26.8434L28.7421 27.2891ZM27.2414 27.7099C27.7583 28.0976 28.5022 27.889 28.7421 27.2891L27.6279 26.8434C27.6813 26.7101 27.8466 26.6638 27.9614 26.7499L27.2414 27.7099ZM25.3175 25.9234C25.2642 26.0567 25.0989 26.103 24.984 26.0169L25.704 25.0569C25.1872 24.6692 24.4433 24.8778 24.2033 25.4777L25.3175 25.9234Z" fill="#FBFBFC" fill-opacity="0.8"/>
</svg>
