<svg width="56" height="56" viewBox="0 0 56 56" fill="none" xmlns="http://www.w3.org/2000/svg">
<rect width="56" height="56" rx="28" fill="white" fill-opacity="0.05"/>
<rect x="0.5" y="0.5" width="55" height="55" rx="27.5" stroke="white" stroke-opacity="0.06"/>
<path d="M28 27.0666L24.9979 29.7892C24.884 29.8925 24.6993 29.8925 24.5854 29.7892L23.3333 28.6537M28.9333 32.6666H32.6667M24.2667 24.2666V19.6M31.7333 24.2666V19.6M22.5867 21.4666H33.4133C34.4588 21.4666 34.9815 21.4666 35.3808 21.6701C35.732 21.8491 36.0176 22.1346 36.1965 22.4859C36.4 22.8852 36.4 23.4079 36.4 24.4533V33.4133C36.4 34.4587 36.4 34.9815 36.1965 35.3808C36.0176 35.732 35.732 36.0176 35.3808 36.1965C34.9815 36.4 34.4588 36.4 33.4133 36.4H22.5867C21.5412 36.4 21.0185 36.4 20.6192 36.1965C20.268 36.0176 19.9824 35.732 19.8035 35.3808C19.6 34.9815 19.6 34.4587 19.6 33.4133V24.4533C19.6 23.4079 19.6 22.8852 19.8035 22.4859C19.9824 22.1346 20.268 21.8491 20.6192 21.6701C21.0185 21.4666 21.5412 21.4666 22.5867 21.4666Z" stroke="#FBFBFC" stroke-opacity="0.8" stroke-width="1.2" stroke-linecap="round"/>
</svg>
