<svg width="56" height="56" viewBox="0 0 56 56" fill="none" xmlns="http://www.w3.org/2000/svg">
<rect width="56" height="56" rx="28" fill="white" fill-opacity="0.05"/>
<rect x="0.5" y="0.5" width="55" height="55" rx="27.5" stroke="white" stroke-opacity="0.06"/>
<path d="M26.5793 23.1952L25.6052 22.2222C24.6249 21.243 24.9738 19.6 26.3601 19.6C28.2269 19.6 29.9169 20.3558 31.1403 21.5778C32.3636 22.7997 33.1202 24.4879 33.1202 26.3526C33.1202 26.6954 33.0947 27.0322 33.0453 27.3613C32.9242 28.1689 33.0917 29.0258 33.6771 29.5959L35.772 31.6362C36.6019 32.4445 36.6104 33.7744 35.7908 34.593L34.5911 35.7914C33.7788 36.6028 32.4617 36.6028 31.6494 35.7914L29.5082 33.6526C28.9439 33.0889 28.1092 32.9257 27.3191 33.0377C27.0058 33.0822 26.6857 33.1052 26.3601 33.1052C24.4934 33.1052 22.8033 32.3493 21.58 31.1274C20.3567 29.9054 19.6 28.2172 19.6 26.3526C19.6 24.9678 21.2449 24.6193 22.2251 25.5985L23.1993 26.5715C24.0116 27.3829 25.3286 27.3829 26.1409 26.5715L26.5793 26.1336C27.3917 25.3222 27.3917 24.0066 26.5793 23.1952Z" stroke="#FBFBFC" stroke-opacity="0.8" stroke-width="1.2" stroke-linecap="round"/>
</svg>
