<svg width="56" height="56" viewBox="0 0 56 56" fill="none" xmlns="http://www.w3.org/2000/svg">
<rect width="56" height="56" rx="28" fill="white" fill-opacity="0.05"/>
<rect x="0.5" y="0.5" width="55" height="55" rx="27.5" stroke="white" stroke-opacity="0.06"/>
<path d="M21.3928 29.6434C21.3928 29.312 21.1242 29.0434 20.7928 29.0434C20.4614 29.0434 20.1928 29.312 20.1928 29.6434H21.3928ZM21.7888 33.4885L21.5341 34.0318H21.5341L21.7888 33.4885ZM27.0962 35.9763L27.3508 35.433L27.3508 35.433L27.0962 35.9763ZM28.8569 35.8979L28.5918 35.3596L28.5723 35.3692L28.5536 35.3802L28.8569 35.8979ZM34.3604 33.1872L34.6255 33.7254L34.6449 33.7158L34.6637 33.7049L34.3604 33.1872ZM35.8072 29.2211C35.8072 28.8897 35.5386 28.6211 35.2072 28.6211C34.8758 28.6211 34.6072 28.8897 34.6072 29.2211H35.8072ZM28 28.7988L28.4104 28.3611L28 27.9764L27.5896 28.3611L28 28.7988ZM28.2014 28.7044L28.4561 29.2476L28.2014 28.7044ZM35.046 25.496L34.7914 24.9527L35.046 25.496ZM35.046 25.3449L34.7914 25.8882L35.046 25.3449ZM28.2014 22.1366L28.4561 21.5933L28.4561 21.5933L28.2014 22.1366ZM27.7985 22.1366L27.5439 21.5933L27.7985 22.1366ZM20.9539 25.3449L21.2086 25.8882L21.2086 25.8882L20.9539 25.3449ZM20.9539 25.496L21.2086 24.9527H21.2086L20.9539 25.496ZM27.7985 28.7044L28.0532 28.1611L28.0532 28.1611L27.7985 28.7044ZM30.9972 31.1853L31.2655 31.7219H31.2655L30.9972 31.1853ZM36.971 28.1985L36.7026 27.6618L36.971 28.1985ZM37.105 27.5555L36.6566 27.9541H36.6566L37.105 27.5555ZM35.2072 25.4205L34.7968 24.9828L34.3706 25.3824L34.7588 25.8191L35.2072 25.4205ZM25.0028 31.1853L24.7345 31.7219H24.7345L25.0028 31.1853ZM19.029 28.1985L19.2973 27.6618H19.2973L19.029 28.1985ZM18.895 27.5555L19.3434 27.9541H19.3434L18.895 27.5555ZM20.7928 25.4205L21.2412 25.8191L21.6294 25.3824L21.2031 24.9828L20.7928 25.4205ZM30.4731 19.7237L30.0628 19.2859V19.2859L30.4731 19.7237ZM30.9931 19.6446L31.2477 19.1013V19.1013L30.9931 19.6446ZM37.3509 22.6247L37.0963 23.168L37.3509 22.6247ZM37.468 23.301L37.0576 22.8633L37.468 23.301ZM25.5269 19.7237L25.9372 19.2859L25.9372 19.2859L25.5269 19.7237ZM25.0069 19.6446L24.7522 19.1013V19.1013L25.0069 19.6446ZM18.6491 22.6247L18.3944 22.0815L18.6491 22.6247ZM18.532 23.301L18.9424 22.8633L18.532 23.301ZM28.4104 21.6575L28 21.2197L28.4104 21.6575ZM27.5896 21.6575L27.1793 22.0952L27.5896 21.6575ZM20.1928 29.6434V31.9777H21.3928V29.6434H20.1928ZM21.5341 34.0318L26.8415 36.5196L27.3508 35.433L22.0435 32.9453L21.5341 34.0318ZM29.122 36.4361L34.6255 33.7254L34.0952 32.6489L28.5918 35.3596L29.122 36.4361ZM35.8072 31.7548V29.2211H34.6072V31.7548H35.8072ZM34.6637 33.7049C35.3634 33.2949 35.8072 32.5625 35.8072 31.7548H34.6072C34.6072 32.1119 34.411 32.4621 34.057 32.6695L34.6637 33.7049ZM26.8415 36.5196C27.5807 36.8661 28.4565 36.8279 29.1602 36.4156L28.5536 35.3802C28.1928 35.5916 27.7345 35.6129 27.3508 35.433L26.8415 36.5196ZM20.1928 31.9777C20.1928 32.8658 20.7274 33.6537 21.5341 34.0318L22.0435 32.9453C21.6293 32.7511 21.3928 32.3692 21.3928 31.9777H20.1928ZM28.6 36.4V28.7988H27.4V36.4H28.6ZM28.4561 29.2476L35.3007 26.0393L34.7914 24.9527L27.9468 28.1611L28.4561 29.2476ZM35.3007 24.8017L28.4561 21.5933L27.9468 22.6799L34.7914 25.8882L35.3007 24.8017ZM27.5439 21.5933L20.6993 24.8017L21.2086 25.8882L28.0532 22.6799L27.5439 21.5933ZM20.6993 26.0393L27.5439 29.2476L28.0532 28.1611L21.2086 24.9527L20.6993 26.0393ZM20.6993 24.8017C20.1724 25.0486 20.1724 25.7923 20.6993 26.0393L21.2086 24.9527C21.6027 25.1375 21.6027 25.7035 21.2086 25.8882L20.6993 24.8017ZM28.4561 21.5933C28.1679 21.4583 27.8321 21.4583 27.5439 21.5933L28.0532 22.6799C28.0187 22.6961 27.9813 22.6961 27.9468 22.6799L28.4561 21.5933ZM35.3007 26.0393C35.8276 25.7923 35.8276 25.0486 35.3007 24.8017L34.7914 25.8882C34.3973 25.7035 34.3973 25.1375 34.7914 24.9527L35.3007 26.0393ZM27.9468 28.1611C27.9813 28.1449 28.0187 28.1449 28.0532 28.1611L27.5439 29.2476C27.8321 29.3827 28.1679 29.3827 28.4561 29.2476L27.9468 28.1611ZM27.5896 29.2365L30.0563 31.549L30.8771 30.6735L28.4104 28.3611L27.5896 29.2365ZM31.2655 31.7219L37.2393 28.7351L36.7026 27.6618L30.7289 30.6486L31.2655 31.7219ZM37.5535 27.1569L35.6556 25.0219L34.7588 25.8191L36.6566 27.9541L37.5535 27.1569ZM37.2393 28.7351C37.8263 28.4416 38.0119 27.6726 37.5535 27.1569L36.6566 27.9541C36.6189 27.9117 36.6007 27.8465 36.6137 27.7844C36.6264 27.7234 36.6652 27.6805 36.7026 27.6618L37.2393 28.7351ZM30.0563 31.549C30.3841 31.8563 30.8713 31.919 31.2655 31.7219L30.7289 30.6486C30.7542 30.636 30.7796 30.633 30.8018 30.6361C30.824 30.6392 30.8516 30.6497 30.8771 30.6735L30.0563 31.549ZM27.5896 28.3611L25.1229 30.6735L25.9437 31.549L28.4104 29.2365L27.5896 28.3611ZM25.2711 30.6486L19.2973 27.6618L18.7607 28.7351L24.7345 31.7219L25.2711 30.6486ZM19.3434 27.9541L21.2412 25.8191L20.3443 25.0219L18.4465 27.1569L19.3434 27.9541ZM19.2973 27.6618C19.3348 27.6805 19.3736 27.7234 19.3863 27.7844C19.3992 27.8465 19.3811 27.9117 19.3434 27.9541L18.4465 27.1569C17.988 27.6726 18.1737 28.4416 18.7607 28.7351L19.2973 27.6618ZM25.1229 30.6735C25.1484 30.6497 25.176 30.6392 25.1982 30.6361C25.2204 30.633 25.2458 30.636 25.2711 30.6486L24.7345 31.7219C25.1287 31.919 25.6159 31.8563 25.9437 31.549L25.1229 30.6735ZM28.8207 22.0952L30.8835 20.1614L30.0628 19.2859L28 21.2197L28.8207 22.0952ZM30.7384 20.1878L37.0963 23.168L37.6056 22.0815L31.2477 19.1013L30.7384 20.1878ZM37.0576 22.8633L34.7968 24.9828L35.6176 25.8582L37.8783 23.7388L37.0576 22.8633ZM37.0963 23.168C37.0563 23.1493 37.0143 23.1028 37.0029 23.0371C36.9913 22.9703 37.0156 22.9027 37.0576 22.8633L37.8783 23.7388C38.4197 23.2313 38.2465 22.3819 37.6056 22.0815L37.0963 23.168ZM30.8835 20.1614C30.8585 20.1848 30.8316 20.1953 30.8097 20.1986C30.7878 20.2019 30.7631 20.1994 30.7384 20.1878L31.2477 19.1013C30.8576 18.9184 30.3836 18.9852 30.0628 19.2859L30.8835 20.1614ZM28 21.2197L25.9372 19.2859L25.1165 20.1614L27.1793 22.0952L28 21.2197ZM24.7522 19.1013L18.3944 22.0815L18.9037 23.168L25.2616 20.1878L24.7522 19.1013ZM18.1216 23.7388L20.3824 25.8582L21.2031 24.9828L18.9424 22.8633L18.1216 23.7388ZM18.3944 22.0815C17.7535 22.3819 17.5803 23.2313 18.1216 23.7388L18.9424 22.8633C18.9844 22.9027 19.0087 22.9703 18.9971 23.0371C18.9857 23.1028 18.9437 23.1493 18.9037 23.168L18.3944 22.0815ZM25.9372 19.2859C25.6164 18.9852 25.1424 18.9184 24.7522 19.1013L25.2616 20.1878C25.2369 20.1994 25.2122 20.2019 25.1903 20.1986C25.1684 20.1953 25.1414 20.1848 25.1165 20.1614L25.9372 19.2859ZM28 21.2197V21.2197L27.1793 22.0952C27.6409 22.5279 28.3591 22.5279 28.8207 22.0952L28 21.2197Z" fill="#FBFBFC" fill-opacity="0.8"/>
</svg>
