<svg width="20" height="20" viewBox="0 0 20 20" fill="none" xmlns="http://www.w3.org/2000/svg">
<g opacity="0.5">
<path d="M10.0003 10.2083C9.38226 10.2083 8.77807 10.025 8.26417 9.6816C7.75027 9.33822 7.34973 8.85016 7.1132 8.27914C6.87668 7.70812 6.81479 7.07979 6.93537 6.4736C7.05595 5.86741 7.35358 5.31058 7.79062 4.87354C8.22766 4.43651 8.78448 4.13888 9.39067 4.0183C9.99686 3.89772 10.6252 3.95961 11.1962 4.19613C11.7672 4.43265 12.2553 4.83319 12.5987 5.3471C12.942 5.861 13.1253 6.46519 13.1253 7.08325C13.1253 7.91205 12.7961 8.70691 12.21 9.29296C11.624 9.87901 10.8291 10.2083 10.0003 10.2083ZM10.0003 5.20825C9.62949 5.20825 9.26697 5.31822 8.95863 5.52425C8.65029 5.73028 8.40997 6.02311 8.26805 6.36572C8.12614 6.70833 8.08901 7.08533 8.16135 7.44905C8.2337 7.81276 8.41228 8.14685 8.6745 8.40908C8.93672 8.6713 9.27082 8.84988 9.63453 8.92223C9.99825 8.99457 10.3752 8.95744 10.7179 8.81553C11.0605 8.67361 11.3533 8.43329 11.5593 8.12495C11.7654 7.81661 11.8753 7.45409 11.8753 7.08325C11.8753 6.58597 11.6778 6.10906 11.3262 5.75743C10.9745 5.4058 10.4976 5.20825 10.0003 5.20825ZM15.8337 16.0416C15.6686 16.0394 15.5108 15.9729 15.3941 15.8561C15.2774 15.7394 15.2108 15.5817 15.2087 15.4166C15.2087 13.7916 14.3253 12.7083 10.0003 12.7083C5.67533 12.7083 4.79199 13.7916 4.79199 15.4166C4.79199 15.5823 4.72614 15.7413 4.60893 15.8585C4.49172 15.9757 4.33275 16.0416 4.16699 16.0416C4.00123 16.0416 3.84226 15.9757 3.72505 15.8585C3.60784 15.7413 3.54199 15.5823 3.54199 15.4166C3.54199 11.4583 8.06699 11.4583 10.0003 11.4583C11.9337 11.4583 16.4587 11.4583 16.4587 15.4166C16.4565 15.5817 16.39 15.7394 16.2732 15.8561C16.1565 15.9729 15.9987 16.0394 15.8337 16.0416Z" fill="white"/>
</g>
</svg>
