<svg width="16" height="17" viewBox="0 0 16 17" fill="none" xmlns="http://www.w3.org/2000/svg">
<g opacity="0.6">
<path d="M5.5115 6.01114V2.90002M10.4893 6.01114V2.90002M4.3915 4.14447H11.6093C12.3062 4.14447 12.6547 4.14447 12.9209 4.28011C13.1551 4.39941 13.3454 4.58979 13.4648 4.82395C13.6004 5.09015 13.6004 5.43863 13.6004 6.13558V12.1089C13.6004 12.8059 13.6004 13.1543 13.4648 13.4205C13.3454 13.6547 13.1551 13.8451 12.9209 13.9644C12.6547 14.1 12.3062 14.1 11.6093 14.1H4.3915C3.69455 14.1 3.34607 14.1 3.07987 13.9644C2.84571 13.8451 2.65534 13.6547 2.53603 13.4205C2.40039 13.1543 2.40039 12.8059 2.40039 12.1089V6.13558C2.40039 5.43863 2.40039 5.09015 2.53603 4.82395C2.65534 4.58979 2.84571 4.39941 3.07987 4.28011C3.34607 4.14447 3.69455 4.14447 4.3915 4.14447Z" stroke="white" stroke-width="0.8" stroke-linecap="round"/>
</g>
</svg>
