<svg width="20" height="20" viewBox="0 0 20 20" fill="none" xmlns="http://www.w3.org/2000/svg">
<path d="M6.88889 6.88889V3M13.1111 6.88889V3M5.48889 4.55556H14.5111C15.3823 4.55556 15.8179 4.55556 16.1507 4.7251C16.4433 4.87424 16.6813 5.11221 16.8305 5.4049C17 5.73766 17 6.17325 17 7.04444V14.5111C17 15.3823 17 15.8179 16.8305 16.1507C16.6813 16.4433 16.4433 16.6813 16.1507 16.8305C15.8179 17 15.3823 17 14.5111 17H5.48889C4.6177 17 4.1821 17 3.84935 16.8305C3.55665 16.6813 3.31868 16.4433 3.16955 16.1507C3 15.8179 3 15.3823 3 14.5111V7.04444C3 6.17325 3 5.73766 3.16955 5.4049C3.31868 5.11221 3.55665 4.87424 3.84935 4.7251C4.1821 4.55556 4.6177 4.55556 5.48889 4.55556Z" stroke="white" stroke-linecap="round"/>
</svg>
