<svg width="20" height="20" viewBox="0 0 20 20" fill="none" xmlns="http://www.w3.org/2000/svg">
<path d="M2 5.2C2 3.43269 3.43269 2 5.2 2C6.96731 2 8.4 3.43269 8.4 5.2C8.4 6.96731 6.96731 8.4 5.2 8.4C3.43269 8.4 2 6.96731 2 5.2Z" stroke="#FBFBFC"/>
<path d="M2 14.8C2 13.0327 3.43269 11.6 5.2 11.6C6.96731 11.6 8.4 13.0327 8.4 14.8C8.4 16.5673 6.96731 18 5.2 18C3.43269 18 2 16.5673 2 14.8Z" stroke="#FBFBFC"/>
<path d="M11.6 5.2C11.6 3.43269 13.0327 2 14.8 2C16.5673 2 18 3.43269 18 5.2C18 6.96731 16.5673 8.4 14.8 8.4C13.0327 8.4 11.6 6.96731 11.6 5.2Z" stroke="#FBFBFC"/>
<path d="M11.6 14.8C11.6 13.0327 13.0327 11.6 14.8 11.6C16.5673 11.6 18 13.0327 18 14.8C18 16.5673 16.5673 18 14.8 18C13.0327 18 11.6 16.5673 11.6 14.8Z" stroke="#FBFBFC"/>
</svg>
