<svg width="18" height="18" viewBox="0 0 18 18" fill="none" xmlns="http://www.w3.org/2000/svg">
<path d="M13.1667 16.5H4.83333M13.1667 16.5H13.8358C14.7675 16.5 15.2333 16.5 15.5892 16.3183C15.9033 16.1583 16.1583 15.9033 16.3183 15.59C16.5 15.2342 16.5 14.7675 16.5 13.8358V6.68333C16.5 6.30833 16.5 6.12083 16.46 5.9425C16.4245 5.78341 16.3658 5.63039 16.2858 5.48833C16.1975 5.33 16.0725 5.1925 15.8275 4.92L13.5317 2.36833C13.2475 2.05333 13.1033 1.89333 12.9308 1.77833C12.7752 1.67511 12.6034 1.59877 12.4225 1.5525C12.2192 1.5 12 1.5 11.5625 1.5H4.16667C3.23333 1.5 2.76667 1.5 2.41 1.68167C2.09641 1.84145 1.84145 2.09641 1.68167 2.41C1.5 2.76667 1.5 3.23333 1.5 4.16667V13.8333C1.5 14.7667 1.5 15.2333 1.68167 15.5892C1.84167 15.9033 2.09583 16.1583 2.41 16.3183C2.76583 16.5 3.2325 16.5 4.16417 16.5H4.83333M13.1667 16.5V13.3308C13.1667 12.3992 13.1667 11.9325 12.985 11.5767C12.825 11.2629 12.5697 11.008 12.2558 10.8483C11.9 10.6667 11.4333 10.6667 10.5 10.6667H7.5C6.56667 10.6667 6.1 10.6667 5.74333 10.8483C5.42974 11.0081 5.17479 11.2631 5.015 11.5767C4.83333 11.9333 4.83333 12.4 4.83333 13.3333V16.5M11.5 4.83333H6.5" stroke="black" stroke-width="1.66667" stroke-linecap="round" stroke-linejoin="round"/>
</svg>
