<svg width="20" height="20" viewBox="0 0 20 20" fill="none" xmlns="http://www.w3.org/2000/svg">
<path d="M9.5025 17.5C8.46583 17.5 7.49083 17.3033 6.5775 16.91C5.66472 16.5161 4.87056 15.9817 4.195 15.3067C3.51944 14.6317 2.98472 13.8383 2.59083 12.9267C2.19694 12.015 2 11.0403 2 10.0025C2 8.96472 2.19694 7.98972 2.59083 7.0775C2.98472 6.16472 3.51917 5.37056 4.19417 4.695C4.86917 4.01944 5.66278 3.48472 6.575 3.09083C7.48722 2.69694 8.46222 2.5 9.5 2.5C10.22 2.5 10.9147 2.60056 11.5842 2.80167C12.2536 3.00278 12.8906 3.29167 13.495 3.66833C13.6072 3.73667 13.6814 3.82833 13.7175 3.94333C13.7531 4.05944 13.7336 4.16639 13.6592 4.26417C13.5842 4.3625 13.4856 4.42083 13.3633 4.43917C13.2411 4.4575 13.1275 4.4325 13.0225 4.36417C12.4925 4.0275 11.9292 3.77167 11.3325 3.59667C10.7358 3.42167 10.125 3.33389 9.5 3.33333C7.65278 3.33333 6.07972 3.98278 4.78083 5.28167C3.48194 6.58056 2.83278 8.15333 2.83333 10C2.83389 11.8467 3.48333 13.4197 4.78167 14.7192C6.08 16.0186 7.65278 16.6678 9.5 16.6667C11.3472 16.6656 12.9203 16.0164 14.2192 14.7192C15.5181 13.4219 16.1672 11.8489 16.1667 10C16.1667 9.78889 16.1578 9.58417 16.14 9.38583C16.1228 9.1875 16.0911 8.98472 16.045 8.7775C16.0172 8.65861 16.0331 8.54472 16.0925 8.43583C16.1519 8.32694 16.2417 8.25972 16.3617 8.23417C16.4756 8.2075 16.5789 8.22833 16.6717 8.29667C16.7644 8.365 16.8247 8.45667 16.8525 8.57167C16.9019 8.79833 16.9389 9.02972 16.9633 9.26583C16.9878 9.50194 17 9.74667 17 10C17 11.0378 16.8033 12.0128 16.41 12.925C16.0167 13.8372 15.4822 14.6311 14.8067 15.3067C14.1311 15.9822 13.3378 16.5164 12.4267 16.9092C11.5156 17.3019 10.5408 17.4989 9.5025 17.5ZM8.30167 12.0767L16.1158 4.2575C16.1936 4.17972 16.2881 4.1375 16.3992 4.13083C16.5103 4.12417 16.6133 4.16778 16.7083 4.26167C16.795 4.34778 16.8383 4.445 16.8383 4.55333C16.8383 4.66167 16.7939 4.75972 16.705 4.8475L8.7725 12.785C8.6375 12.9194 8.48028 12.9867 8.30083 12.9867C8.12139 12.9867 7.96444 12.9194 7.83 12.785L5.63167 10.5867C5.55389 10.5089 5.51222 10.4131 5.50667 10.2992C5.50111 10.1864 5.54278 10.0856 5.63167 9.99667C5.72056 9.90778 5.81889 9.86333 5.92667 9.86333C6.03444 9.86333 6.13278 9.90778 6.22167 9.99667L8.30167 12.0767Z" fill="white"/>
</svg>
