<svg width="20" height="20" viewBox="0 0 20 20" fill="none" xmlns="http://www.w3.org/2000/svg">
<path d="M18.5938 12.9781V10.4688C18.5948 10.233 18.5191 10.0033 18.3782 9.81436C18.2373 9.62538 18.0387 9.48736 17.8125 9.42109H17.8008L14.8438 8.6125V5.625C14.8438 5.50068 14.7944 5.38145 14.7065 5.29354C14.6186 5.20564 14.4993 5.15625 14.375 5.15625C14.2507 5.15625 14.1315 5.20564 14.0435 5.29354C13.9556 5.38145 13.9063 5.50068 13.9063 5.625V8.35938L11.7188 7.76719V4.21875H12.5C12.6243 4.21875 12.7436 4.16936 12.8315 4.08146C12.9194 3.99355 12.9688 3.87432 12.9688 3.75C12.9688 3.62568 12.9194 3.50645 12.8315 3.41854C12.7436 3.33064 12.6243 3.28125 12.5 3.28125H3.125C3.00068 3.28125 2.88145 3.33064 2.79355 3.41854C2.70564 3.50645 2.65625 3.62568 2.65625 3.75C2.65625 3.87432 2.70564 3.99355 2.79355 4.08146C2.88145 4.16936 3.00068 4.21875 3.125 4.21875H3.90625V7.03125H3.125C3.00068 7.03125 2.88145 7.08064 2.79355 7.16854C2.70564 7.25645 2.65625 7.37568 2.65625 7.5C2.65625 7.62432 2.70564 7.74355 2.79355 7.83146C2.88145 7.91936 3.00068 7.96875 3.125 7.96875H5.3125C6.7624 7.9704 8.15243 8.54711 9.17767 9.57234C10.2029 10.5976 10.7796 11.9876 10.7813 13.4375V14.375C10.7813 14.4993 10.8306 14.6185 10.9185 14.7065C11.0065 14.7944 11.1257 14.8438 11.25 14.8438H13.9109C13.9353 15.2638 14.0591 15.6721 14.2721 16.0349C14.4852 16.3978 14.7814 16.7048 15.1363 16.9308C15.4913 17.1567 15.8948 17.2951 16.3137 17.3346C16.7327 17.374 17.1549 17.3134 17.5458 17.1577C17.9367 17.0019 18.285 16.7556 18.5621 16.4389C18.8391 16.1222 19.0369 15.7442 19.1392 15.336C19.2416 14.9279 19.2455 14.5013 19.1506 14.0913C19.0558 13.6814 18.8649 13.2999 18.5938 12.9781ZM5.3125 7.03125H4.84375V4.21875H10.7813V10.1047C10.2097 9.16648 9.40652 8.39101 8.44882 7.85278C7.49111 7.31455 6.41109 7.03164 5.3125 7.03125ZM11.7188 13.4375V8.7375L17.5492 10.3164C17.581 10.327 17.6086 10.3475 17.6279 10.3749C17.6472 10.4023 17.6571 10.4352 17.6563 10.4688V12.2656C17.3126 12.1104 16.9399 12.0301 16.5628 12.03C16.1857 12.03 15.813 12.1102 15.4693 12.2654C15.1256 12.4206 14.819 12.6472 14.5697 12.9301C14.3204 13.2131 14.1342 13.5458 14.0234 13.9062H11.7188V13.4375ZM16.5625 16.4062C16.2226 16.4062 15.8903 16.3054 15.6076 16.1166C15.325 15.9277 15.1047 15.6593 14.9746 15.3452C14.8445 15.0312 14.8105 14.6856 14.8768 14.3522C14.9431 14.0188 15.1068 13.7125 15.3472 13.4722C15.5875 13.2318 15.8938 13.0681 16.2272 13.0018C16.5606 12.9355 16.9062 12.9695 17.2202 13.0996C17.5343 13.2297 17.8027 13.45 17.9916 13.7326C18.1804 14.0153 18.2813 14.3476 18.2813 14.6875C18.2813 15.1433 18.1002 15.5805 17.7778 15.9028C17.4555 16.2252 17.0183 16.4062 16.5625 16.4062ZM5.3125 9.53125C4.53992 9.53125 3.78469 9.76035 3.14231 10.1896C2.49993 10.6188 1.99925 11.2289 1.7036 11.9426C1.40794 12.6564 1.33059 13.4418 1.48131 14.1996C1.63203 14.9573 2.00407 15.6533 2.55037 16.1996C3.09666 16.7459 3.79269 17.118 4.55043 17.2687C5.30817 17.4194 6.09359 17.3421 6.80736 17.0464C7.52113 16.7507 8.13121 16.2501 8.56043 15.6077C8.98965 14.9653 9.21875 14.2101 9.21875 13.4375C9.21751 12.4019 8.80556 11.409 8.07327 10.6767C7.34097 9.94444 6.34812 9.53249 5.3125 9.53125ZM5.3125 16.4062C4.72534 16.4062 4.15136 16.2321 3.66315 15.9059C3.17494 15.5797 2.79443 15.1161 2.56973 14.5736C2.34504 14.0311 2.28625 13.4342 2.4008 12.8583C2.51535 12.2824 2.79809 11.7535 3.21328 11.3383C3.62847 10.9231 4.15745 10.6403 4.73333 10.5258C5.30921 10.4112 5.90613 10.47 6.44859 10.6947C6.99106 10.9194 7.45472 11.2999 7.78093 11.7882C8.10714 12.2764 8.28125 12.8503 8.28125 13.4375C8.28125 14.2249 7.96847 14.98 7.41173 15.5367C6.85498 16.0935 6.09986 16.4062 5.3125 16.4062ZM6.09375 13.4375C6.09375 13.592 6.04793 13.7431 5.96209 13.8715C5.87624 14 5.75423 14.1002 5.61147 14.1593C5.46872 14.2184 5.31164 14.2339 5.16009 14.2037C5.00854 14.1736 4.86933 14.0992 4.76007 13.9899C4.65081 13.8807 4.57641 13.7415 4.54626 13.5899C4.51612 13.4384 4.53159 13.2813 4.59072 13.1385C4.64985 12.9958 4.74999 12.8738 4.87846 12.7879C5.00694 12.7021 5.15799 12.6562 5.3125 12.6562C5.5197 12.6562 5.71842 12.7386 5.86493 12.8851C6.01144 13.0316 6.09375 13.2303 6.09375 13.4375Z" fill="white"/>
</svg>
