<svg width="18" height="18" viewBox="0 0 18 18" fill="none" xmlns="http://www.w3.org/2000/svg">
<path d="M1 4.2C1 2.43269 2.43269 1 4.2 1C5.96731 1 7.4 2.43269 7.4 4.2C7.4 5.96731 5.96731 7.4 4.2 7.4C2.43269 7.4 1 5.96731 1 4.2Z" stroke="#FBFBFC"/>
<path d="M1 13.8C1 12.0327 2.43269 10.6 4.2 10.6C5.96731 10.6 7.4 12.0327 7.4 13.8C7.4 15.5673 5.96731 17 4.2 17C2.43269 17 1 15.5673 1 13.8Z" stroke="#FBFBFC"/>
<path d="M10.6 4.2C10.6 2.43269 12.0327 1 13.8 1C15.5673 1 17 2.43269 17 4.2C17 5.96731 15.5673 7.4 13.8 7.4C12.0327 7.4 10.6 5.96731 10.6 4.2Z" stroke="#FBFBFC"/>
<path d="M10.6 13.8C10.6 12.0327 12.0327 10.6 13.8 10.6C15.5673 10.6 17 12.0327 17 13.8C17 15.5673 15.5673 17 13.8 17C12.0327 17 10.6 15.5673 10.6 13.8Z" stroke="#FBFBFC"/>
</svg>
