<svg width="20" height="20" viewBox="0 0 20 20" fill="none" xmlns="http://www.w3.org/2000/svg">
<path d="M9.99984 10.2084C9.38177 10.2084 8.77758 10.0251 8.26368 9.68172C7.74978 9.33834 7.34924 8.85028 7.11271 8.27926C6.87619 7.70824 6.8143 7.07991 6.93488 6.47372C7.05546 5.86753 7.35309 5.31071 7.79013 4.87367C8.22717 4.43663 8.78399 4.139 9.39018 4.01842C9.99637 3.89784 10.6247 3.95973 11.1957 4.19625C11.7667 4.43278 12.2548 4.83331 12.5982 5.34722C12.9416 5.86112 13.1248 6.46531 13.1248 7.08338C13.1248 7.91218 12.7956 8.70703 12.2095 9.29308C11.6235 9.87914 10.8286 10.2084 9.99984 10.2084ZM9.99984 5.20838C9.629 5.20838 9.26649 5.31834 8.95814 5.52437C8.6498 5.7304 8.40948 6.02323 8.26756 6.36584C8.12565 6.70846 8.08852 7.08546 8.16086 7.44917C8.23321 7.81288 8.41179 8.14698 8.67401 8.4092C8.93624 8.67142 9.27033 8.85 9.63404 8.92235C9.99776 8.9947 10.3748 8.95756 10.7174 8.81565C11.06 8.67373 11.3528 8.43341 11.5588 8.12507C11.7649 7.81673 11.8748 7.45422 11.8748 7.08338C11.8748 6.58609 11.6773 6.10918 11.3257 5.75755C10.974 5.40592 10.4971 5.20838 9.99984 5.20838ZM15.8332 16.0417C15.6681 16.0396 15.5104 15.973 15.3936 15.8563C15.2769 15.7395 15.2103 15.5818 15.2082 15.4167C15.2082 13.7917 14.3248 12.7084 9.99984 12.7084C5.67484 12.7084 4.7915 13.7917 4.7915 15.4167C4.7915 15.5825 4.72566 15.7414 4.60845 15.8587C4.49124 15.9759 4.33226 16.0417 4.1665 16.0417C4.00074 16.0417 3.84177 15.9759 3.72456 15.8587C3.60735 15.7414 3.5415 15.5825 3.5415 15.4167C3.5415 11.4584 8.0665 11.4584 9.99984 11.4584C11.9332 11.4584 16.4582 11.4584 16.4582 15.4167C16.456 15.5818 16.3895 15.7395 16.2727 15.8563C16.156 15.973 15.9983 16.0396 15.8332 16.0417Z" fill="white"/>
</svg>
