<svg width="14" height="14" viewBox="0 0 14 14" fill="none" xmlns="http://www.w3.org/2000/svg">
<path d="M1 11.7112C1 12.423 1.57704 13 2.28885 13H4.22211C4.93392 13 5.51096 12.423 5.51096 11.7112V9.77789C5.51096 9.06608 4.93392 8.48904 4.22211 8.48904H2.28885C1.57704 8.48904 1 9.06608 1 9.77789V11.7112Z" stroke="white" stroke-opacity="0.5" stroke-width="1.2"/>
<path d="M1 4.62251C1 5.33432 1.57704 5.91135 2.28885 5.91135H4.22211C4.93392 5.91135 5.51096 5.33432 5.51096 4.62251V2.68924C5.51096 1.97743 4.93392 1.40039 4.22211 1.40039H2.28885C1.57704 1.40039 1 1.97743 1 2.68924V4.62251Z" stroke="white" stroke-opacity="0.5" stroke-width="1.2"/>
<path d="M8.06575 2.74452C7.56242 3.24785 7.56242 4.0639 8.06575 4.56722L9.43278 5.93425C9.9361 6.43758 10.7522 6.43758 11.2555 5.93425L12.6225 4.56722C13.1258 4.0639 13.1258 3.24785 12.6225 2.74452L11.2555 1.37749C10.7522 0.874169 9.9361 0.874169 9.43278 1.37749L8.06575 2.74452Z" stroke="white" stroke-opacity="0.5" stroke-width="1.2"/>
<path d="M8.08865 11.7112C8.08865 12.423 8.66568 13 9.37749 13H11.3108C12.0226 13 12.5996 12.423 12.5996 11.7112V9.77789C12.5996 9.06608 12.0226 8.48904 11.3108 8.48904H9.37749C8.66568 8.48904 8.08865 9.06608 8.08865 9.77789V11.7112Z" stroke="white" stroke-opacity="0.5" stroke-width="1.2"/>
</svg>
