<svg width="14" height="14" viewBox="0 0 14 14" fill="none" xmlns="http://www.w3.org/2000/svg">
<path d="M2.48912 12.7027L2.76151 12.1681H2.76151L2.48912 12.7027ZM1.29725 11.5109L1.83186 11.2385H1.83186L1.29725 11.5109ZM12.7027 11.5109L12.1681 11.2385L12.7027 11.5109ZM11.5109 12.7027L11.2385 12.1681L11.5109 12.7027ZM11.5109 1.29725L11.2385 1.83186V1.83186L11.5109 1.29725ZM12.7027 2.48912L12.1681 2.76151V2.76151L12.7027 2.48912ZM2.48912 1.29725L2.76151 1.83186L2.48912 1.29725ZM1.29725 2.48912L1.83186 2.76151L1.29725 2.48912ZM6.42426 4.93937C6.18995 4.70506 5.81005 4.70506 5.57574 4.93937C5.34142 5.17369 5.34142 5.55359 5.57574 5.7879L6.42426 4.93937ZM7.44352 6.80715L7.86778 6.38289L7.44352 6.80715ZM5.57574 8.2121C5.34142 8.44641 5.34142 8.82631 5.57574 9.06063C5.81005 9.29494 6.18995 9.29494 6.42426 9.06063L5.57574 8.2121ZM5.36364 1.6H8.63636V0.4H5.36364V1.6ZM12.4 5.36364V8.63636H13.6V5.36364H12.4ZM8.63636 12.4H5.36364V13.6H8.63636V12.4ZM1.6 8.63636V5.36364H0.4V8.63636H1.6ZM5.36364 12.4C4.59003 12.4 4.04591 12.3995 3.62123 12.3648C3.20355 12.3307 2.95453 12.2665 2.76151 12.1681L2.21672 13.2373C2.6071 13.4363 3.03163 13.5207 3.52351 13.5609C4.00839 13.6005 4.60983 13.6 5.36364 13.6V12.4ZM0.4 8.63636C0.4 9.39017 0.399533 9.99161 0.439149 10.4765C0.479338 10.9684 0.563743 11.3929 0.762651 11.7833L1.83186 11.2385C1.73351 11.0455 1.66929 10.7964 1.63516 10.3788C1.60047 9.95409 1.6 9.40997 1.6 8.63636H0.4ZM2.76151 12.1681C2.36124 11.9642 2.03581 11.6388 1.83186 11.2385L0.762651 11.7833C1.08165 12.4093 1.59066 12.9184 2.21672 13.2373L2.76151 12.1681ZM12.4 8.63636C12.4 9.40997 12.3995 9.95409 12.3648 10.3788C12.3307 10.7964 12.2665 11.0455 12.1681 11.2385L13.2373 11.7833C13.4363 11.3929 13.5207 10.9684 13.5609 10.4765C13.6005 9.99161 13.6 9.39017 13.6 8.63636H12.4ZM8.63636 13.6C9.39017 13.6 9.99161 13.6005 10.4765 13.5609C10.9684 13.5207 11.3929 13.4363 11.7833 13.2373L11.2385 12.1681C11.0455 12.2665 10.7964 12.3307 10.3788 12.3648C9.95409 12.3995 9.40997 12.4 8.63636 12.4V13.6ZM12.1681 11.2385C11.9642 11.6388 11.6388 11.9642 11.2385 12.1681L11.7833 13.2373C12.4093 12.9184 12.9184 12.4093 13.2373 11.7833L12.1681 11.2385ZM8.63636 1.6C9.40997 1.6 9.95409 1.60047 10.3788 1.63516C10.7964 1.66929 11.0455 1.73351 11.2385 1.83186L11.7833 0.762651C11.3929 0.563743 10.9684 0.479338 10.4765 0.439149C9.99161 0.399533 9.39017 0.4 8.63636 0.4V1.6ZM13.6 5.36364C13.6 4.60983 13.6005 4.00839 13.5609 3.52351C13.5207 3.03163 13.4363 2.6071 13.2373 2.21672L12.1681 2.76151C12.2665 2.95453 12.3307 3.20355 12.3648 3.62123C12.3995 4.04591 12.4 4.59003 12.4 5.36364H13.6ZM11.2385 1.83186C11.6388 2.03581 11.9642 2.36124 12.1681 2.76151L13.2373 2.21672C12.9184 1.59066 12.4093 1.08165 11.7833 0.762651L11.2385 1.83186ZM5.36364 0.4C4.60983 0.4 4.00839 0.399533 3.52351 0.439149C3.03163 0.479338 2.6071 0.563743 2.21672 0.762651L2.76151 1.83186C2.95453 1.73351 3.20355 1.66929 3.62123 1.63516C4.04591 1.60047 4.59003 1.6 5.36364 1.6V0.4ZM1.6 5.36364C1.6 4.59003 1.60047 4.04591 1.63516 3.62123C1.66929 3.20355 1.73351 2.95453 1.83186 2.76151L0.762651 2.21672C0.563743 2.6071 0.479338 3.03163 0.439149 3.52351C0.399533 4.00839 0.4 4.60983 0.4 5.36364H1.6ZM2.21672 0.762651C1.59066 1.08165 1.08165 1.59066 0.762651 2.21672L1.83186 2.76151C2.03581 2.36124 2.36124 2.03581 2.76151 1.83186L2.21672 0.762651ZM5.57574 5.7879L7.01925 7.23142L7.86778 6.38289L6.42426 4.93937L5.57574 5.7879ZM7.01925 6.76858C6.966 6.82184 6.60512 7.18272 6.25755 7.53028C6.08377 7.70406 5.91332 7.87452 5.78631 8.00153C5.7228 8.06503 5.67016 8.11768 5.63339 8.15444C5.61501 8.17283 5.6006 8.18724 5.59078 8.19706C5.58587 8.20197 5.58211 8.20573 5.57957 8.20826C5.57831 8.20953 5.57735 8.21049 5.57671 8.21113C5.57638 8.21145 5.57614 8.21169 5.57598 8.21186C5.5759 8.21194 5.57584 8.212 5.5758 8.21204C5.57578 8.21206 5.57576 8.21207 5.57575 8.21208C5.57574 8.21209 5.57574 8.2121 6 8.63636C6.42426 9.06063 6.42427 9.06062 6.42428 9.06061C6.42429 9.0606 6.4243 9.06059 6.42432 9.06057C6.42443 9.06046 6.42436 9.06053 6.42451 9.06038C6.42468 9.06021 6.4249 9.05999 6.42523 9.05966C6.42587 9.05903 6.42685 9.05805 6.4281 9.05679C6.43064 9.05426 6.4344 9.0505 6.43931 9.04559C6.44912 9.03577 6.46354 9.02135 6.48192 9.00297C6.51869 8.9662 6.57133 8.91356 6.63484 8.85006C6.76185 8.72305 6.9323 8.55259 7.10608 8.37881C7.45365 8.03124 7.81453 7.67037 7.86778 7.61711L7.01925 6.76858ZM7.01925 7.23142C6.89144 7.10361 6.89144 6.89639 7.01925 6.76858L7.86778 7.61711C8.2086 7.27629 8.2086 6.72371 7.86778 6.38289L7.01925 7.23142Z" fill="#1C1C1C" fill-opacity="0.5"/>
</svg>
