<svg width="20" height="20" viewBox="0 0 20 20" fill="none" xmlns="http://www.w3.org/2000/svg">
<path d="M13 10C13 11.6569 11.6569 13 10 13C8.34315 13 7 11.6569 7 10C7 8.34315 8.34315 7 10 7C11.6569 7 13 8.34315 13 10Z" stroke="white"/>
<path d="M11.5 3.63602C11.5 3.00862 10.9914 2.5 10.364 2.5H9.636C9.0086 2.5 8.5 3.0086 8.5 3.636C8.5 4.64806 7.27635 5.15488 6.56071 4.43925C6.11707 3.9956 5.39777 3.99559 4.95413 4.43924L4.43942 4.95395C3.99575 5.39761 3.99575 6.11693 4.43942 6.5606C5.15511 7.27629 4.64822 8.5 3.63608 8.5C3.00864 8.5 2.5 9.00864 2.5 9.63608V10.364C2.5 10.9914 3.00862 11.5 3.63603 11.5C4.64811 11.5 5.15498 12.7237 4.43933 13.4393C3.99569 13.8829 3.99569 14.6022 4.43933 15.0459L4.95406 15.5606C5.39771 16.0043 6.11701 16.0043 6.56066 15.5606C7.27633 14.8449 8.5 15.3518 8.5 16.3639C8.5 16.9914 9.00863 17.5 9.63605 17.5H10.3639C10.9914 17.5 11.5 16.9913 11.5 16.3639C11.5 15.3518 12.7237 14.8449 13.4394 15.5606C13.883 16.0042 14.6024 16.0042 15.046 15.5606L15.5607 15.0458C16.0044 14.6022 16.0044 13.8829 15.5607 13.4393C14.8451 12.7236 15.3519 11.5 16.364 11.5C16.9914 11.5 17.5 10.9914 17.5 10.364V9.63605C17.5 9.00863 16.9914 8.5 16.3639 8.5C15.3518 8.5 14.845 7.2763 15.5606 6.56063C16.0043 6.11697 16.0043 5.39765 15.5606 4.95399L15.0459 4.43929C14.6023 3.99564 13.883 3.99565 13.4393 4.4393C12.7237 5.15495 11.5 4.64811 11.5 3.63602Z" stroke="white"/>
</svg>
