<svg width="50" height="50" viewBox="0 0 50 50" fill="none" xmlns="http://www.w3.org/2000/svg">
<rect width="50" height="50" rx="25" fill="#1C1C1C"/>
<path d="M28.3365 22.8613L24.9674 16.8945C24.7438 16.4993 24.3759 16.211 23.9446 16.093C23.5132 15.975 23.0537 16.037 22.667 16.2652C22.2803 16.4935 21.998 16.8695 21.8823 17.3104C21.7665 17.7514 21.8268 18.2213 22.0497 18.6169L24.2396 22.4954L21.3759 17.4236C21.2654 17.2275 21.1182 17.0556 20.9426 16.9177C20.7671 16.7798 20.5668 16.6786 20.353 16.62C20.1392 16.5613 19.9162 16.5463 19.6968 16.5758C19.4773 16.6053 19.2657 16.6787 19.074 16.7919C18.8824 16.905 18.7144 17.0557 18.5797 17.2353C18.445 17.4149 18.3462 17.6198 18.289 17.8384C18.2318 18.0571 18.2173 18.2851 18.2463 18.5095C18.2753 18.7338 18.3473 18.9501 18.4582 19.146L21.6588 24.8145L20.1427 22.1294C19.9191 21.7342 19.5512 21.4459 19.1199 21.328C18.6885 21.21 18.229 21.2719 17.8423 21.5002C17.4556 21.7285 17.1733 22.1044 17.0576 22.5454C16.9418 22.9864 17.002 23.4563 17.225 23.8519L20.4256 29.5204C20.868 30.3041 21.4569 30.9912 22.159 31.5422C22.861 32.0932 23.6623 32.4973 24.5171 32.7317C25.3719 32.966 26.2635 33.0258 27.141 32.9077C28.0184 32.7897 28.8645 32.496 29.6309 32.0436C30.3973 31.5911 31.0691 30.9887 31.6078 30.2707C32.1465 29.5528 32.5416 28.7334 32.7706 27.8592C32.9996 26.9851 33.0579 26.0735 32.9422 25.1763C32.8265 24.2792 32.5392 23.4141 32.0965 22.6305L30.412 19.6471C30.3014 19.451 30.1542 19.2791 29.9787 19.1412C29.8032 19.0033 29.6028 18.9022 29.3891 18.8435C29.1753 18.7848 28.9523 18.7698 28.7329 18.7993C28.5134 18.8288 28.3018 18.9022 28.1101 19.0154C27.9184 19.1285 27.7504 19.2792 27.6157 19.4588C27.481 19.6384 27.3823 19.8433 27.3251 20.062C27.2679 20.2806 27.2534 20.5086 27.2824 20.733C27.3114 20.9573 27.3834 21.1737 27.4942 21.3696L28.3365 22.8613ZM28.3365 22.8613C27.5627 23.3181 26.998 24.0705 26.7668 24.953C26.5355 25.8356 26.6566 26.7759 27.1033 27.5671M20.9632 34C19.8212 33.1897 18.8691 32.1305 18.1758 30.8985M28.9569 16C29.7257 15.9999 30.481 16.2068 31.1467 16.6C31.8125 16.9931 32.3652 17.5586 32.7493 18.2396" stroke="#F8F8F8" stroke-linecap="round" stroke-linejoin="round"/>
</svg>
