<svg width="56" height="57" viewBox="0 0 56 57" fill="none" xmlns="http://www.w3.org/2000/svg">
<rect x="0.5" y="0.5" width="55" height="55.7" rx="27.5" stroke="white" stroke-opacity="0.06"/>
<path d="M25.5 22.4437H23.1667C22.2332 22.4437 21.7665 22.4437 21.41 22.6277C21.0964 22.7894 20.8414 23.0476 20.6817 23.3651C20.5 23.7261 20.5 24.1986 20.5 25.1437V33.2437C20.5 34.1888 20.5 34.6614 20.6817 35.0223C20.8414 35.3399 21.0964 35.598 21.41 35.7598C21.7665 35.9437 22.2332 35.9437 23.1667 35.9437H25.5M25.5 22.4437H30.5M25.5 22.4437V22.0219C25.5 21.3229 24.9404 20.7562 24.25 20.7562C23.5596 20.7562 23 21.3229 23 22.0219V22.4437M30.5 22.4437H32.8333C33.7668 22.4437 34.2335 22.4437 34.59 22.6277C34.9036 22.7894 35.1586 23.0476 35.3183 23.3651C35.5 23.7261 35.5 24.1986 35.5 25.1437V27.5062M30.5 22.4437V22.0219C30.5 21.3229 31.0596 20.7562 31.75 20.7562C32.4404 20.7562 33 21.3229 33 22.0219V22.4437M28.8333 35.9437V32.5687M32.1667 35.9437V30.0375M35.5 35.9437V32.5687" stroke="white" stroke-width="1.2" stroke-linecap="round"/>
</svg>
