<svg width="20" height="20" viewBox="0 0 20 20" fill="none" xmlns="http://www.w3.org/2000/svg">
<path d="M9.07143 8.66667C9.07143 8.39052 8.84757 8.16667 8.57143 8.16667C8.29529 8.16667 8.07143 8.39052 8.07143 8.66667H9.07143ZM8.07143 14C8.07143 14.2761 8.29529 14.5 8.57143 14.5C8.84757 14.5 9.07143 14.2761 9.07143 14H8.07143ZM11.9286 8.66667C11.9286 8.39052 11.7047 8.16667 11.4286 8.16667C11.1524 8.16667 10.9286 8.39052 10.9286 8.66667H11.9286ZM10.9286 14C10.9286 14.2761 11.1524 14.5 11.4286 14.5C11.7047 14.5 11.9286 14.2761 11.9286 14H10.9286ZM6.4943 15.8547L6.70903 15.4031L6.4943 15.8547ZM5.86999 15.272L6.30885 15.0324H6.30885L5.86999 15.272ZM14.13 15.272L13.6911 15.0324L14.13 15.272ZM13.5057 15.8547L13.291 15.4031H13.291L13.5057 15.8547ZM5 6.16667C4.72386 6.16667 4.5 6.39052 4.5 6.66667C4.5 6.94281 4.72386 7.16667 5 7.16667V6.16667ZM15 7.16667C15.2761 7.16667 15.5 6.94281 15.5 6.66667C15.5 6.39052 15.2761 6.16667 15 6.16667V7.16667ZM7 6.66667C7 6.94281 7.22386 7.16667 7.5 7.16667C7.77614 7.16667 8 6.94281 8 6.66667H7ZM12 6.66667C12 6.94281 12.2239 7.16667 12.5 7.16667C12.7761 7.16667 13 6.94281 13 6.66667H12ZM8.07143 8.66667V14H9.07143V8.66667H8.07143ZM10.9286 8.66667V14H11.9286V8.66667H10.9286ZM13.7857 6.66667V13.8667H14.7857V6.66667H13.7857ZM12 15.5H8V16.5H12V15.5ZM5.21429 6.66667V13.8667H6.21429V6.66667H5.21429ZM8 15.5C7.59226 15.5 7.31452 15.4997 7.09974 15.4833C6.88985 15.4673 6.78273 15.4382 6.70903 15.4031L6.27957 16.3062C6.51146 16.4165 6.75715 16.4601 7.0237 16.4804C7.28534 16.5003 7.60767 16.5 8 16.5V15.5ZM5.21429 13.8667C5.21429 14.2312 5.21384 14.5368 5.23565 14.786C5.25807 15.0421 5.30678 15.2838 5.43113 15.5116L6.30885 15.0324C6.2775 14.975 6.24835 14.8873 6.23184 14.6988C6.21473 14.5033 6.21429 14.2489 6.21429 13.8667H5.21429ZM6.70903 15.4031C6.53121 15.3186 6.39313 15.1868 6.30885 15.0324L5.43113 15.5116C5.62078 15.859 5.91978 16.1351 6.27957 16.3062L6.70903 15.4031ZM13.7857 13.8667C13.7857 14.2489 13.7853 14.5033 13.7682 14.6988C13.7517 14.8873 13.7225 14.975 13.6911 15.0324L14.5689 15.5116C14.6932 15.2838 14.7419 15.0421 14.7643 14.786C14.7862 14.5368 14.7857 14.2312 14.7857 13.8667H13.7857ZM12 16.5C12.3923 16.5 12.7147 16.5003 12.9763 16.4804C13.2428 16.4601 13.4885 16.4165 13.7204 16.3062L13.291 15.4031C13.2173 15.4382 13.1102 15.4673 12.9003 15.4833C12.6855 15.4997 12.4077 15.5 12 15.5V16.5ZM13.6911 15.0324C13.6069 15.1868 13.4688 15.3186 13.291 15.4031L13.7204 16.3062C14.0802 16.1351 14.3792 15.859 14.5689 15.5116L13.6911 15.0324ZM5 7.16667H5.71429V6.16667H5V7.16667ZM5.71429 7.16667H14.2857V6.16667H5.71429V7.16667ZM14.2857 7.16667H15V6.16667H14.2857V7.16667ZM8 6.13333C8 5.30271 8.81811 4.5 10 4.5V3.5C8.42046 3.5 7 4.60754 7 6.13333H8ZM10 4.5C11.1819 4.5 12 5.30271 12 6.13333H13C13 4.60754 11.5795 3.5 10 3.5V4.5ZM7 6.13333V6.66667H8V6.13333H7ZM12 6.13333V6.66667H13V6.13333H12Z" fill="white"/>
</svg>
