<svg width="20" height="20" viewBox="0 0 20 20" fill="none" xmlns="http://www.w3.org/2000/svg">
<path d="M7.5 4.44385H5.16667C4.23325 4.44385 3.76654 4.44385 3.41002 4.62777C3.09641 4.78956 2.84144 5.04772 2.68166 5.36524C2.5 5.72621 2.5 6.19876 2.5 7.14385V15.2438C2.5 16.1889 2.5 16.6615 2.68166 17.0225C2.84144 17.34 3.09641 17.5981 3.41002 17.7599C3.76654 17.9438 4.23325 17.9438 5.16667 17.9438H7.5M7.5 4.44385H12.5M7.5 4.44385V4.02197C7.5 3.32299 6.94036 2.75635 6.25 2.75635C5.55964 2.75635 5 3.32299 5 4.02197V4.44385M12.5 4.44385H14.8333C15.7668 4.44385 16.2335 4.44385 16.59 4.62777C16.9036 4.78956 17.1586 5.04772 17.3183 5.36524C17.5 5.72621 17.5 6.19876 17.5 7.14385V9.50635M12.5 4.44385V4.02197C12.5 3.32299 13.0596 2.75635 13.75 2.75635C14.4404 2.75635 15 3.32299 15 4.02197V4.44385M10.8333 17.9438V14.5688M14.1667 17.9438V12.0376M17.5 17.9438V14.5688" stroke="white" stroke-width="1.2" stroke-linecap="round"/>
</svg>
