<svg width="18" height="18" viewBox="0 0 18 18" fill="none" xmlns="http://www.w3.org/2000/svg">
<path d="M2.98549 16.6037L3.21248 16.1582L2.98549 16.6037ZM1.39634 15.0145L1.84184 14.7875L1.39634 15.0145ZM13.6946 15.0145L13.2491 14.7875L13.6946 15.0145ZM12.1054 16.6037L11.8784 16.1582L12.1054 16.6037ZM12.1054 4.30543L11.8784 4.75093L12.1054 4.30543ZM13.6946 5.89458L13.2491 6.12158L13.6946 5.89458ZM2.98549 4.30543L3.21248 4.75093L2.98549 4.30543ZM1.39634 5.89458L1.84184 6.12158L1.39634 5.89458ZM14.0909 13.5909C13.8148 13.5909 13.5909 13.8148 13.5909 14.0909C13.5909 14.3671 13.8148 14.5909 14.0909 14.5909V13.5909ZM3.40909 3.90909C3.40909 4.18523 3.63295 4.40909 3.90909 4.40909C4.18523 4.40909 4.40909 4.18523 4.40909 3.90909H3.40909ZM4.29061 12.2752C4.09114 12.4661 4.08422 12.7826 4.27518 12.9821C4.46613 13.1816 4.78263 13.1885 4.98211 12.9976L4.29061 12.2752ZM10.1088 12.9976C10.3083 13.1885 10.6248 13.1816 10.8157 12.9821C11.0067 12.7826 10.9998 12.4661 10.8003 12.2752L10.1088 12.9976ZM6.81818 4.40909H8.27273V3.40909H6.81818V4.40909ZM13.5909 9.72727V11.1818H14.5909V9.72727H13.5909ZM8.27273 16.5H6.81818V17.5H8.27273V16.5ZM1.5 11.1818V9.72727H0.5V11.1818H1.5ZM6.81818 16.5C5.79165 16.5 5.05183 16.4996 4.47054 16.4521C3.89509 16.4051 3.51918 16.3144 3.21248 16.1582L2.75849 17.0492C3.22966 17.2892 3.75182 17.3967 4.38911 17.4488C5.02056 17.5004 5.80816 17.5 6.81818 17.5V16.5ZM0.5 11.1818C0.5 12.1918 0.499611 12.9794 0.551203 13.6109C0.603272 14.2482 0.710766 14.7703 0.950837 15.2415L1.84184 14.7875C1.68557 14.4808 1.5949 14.1049 1.54788 13.5295C1.50039 12.9482 1.5 12.2083 1.5 11.1818H0.5ZM3.21248 16.1582C2.62234 15.8575 2.14254 15.3777 1.84184 14.7875L0.950837 15.2415C1.3474 16.0198 1.98019 16.6526 2.75849 17.0492L3.21248 16.1582ZM13.5909 11.1818C13.5909 12.2083 13.5905 12.9482 13.543 13.5295C13.496 14.1049 13.4053 14.4808 13.2491 14.7875L14.1401 15.2415C14.3801 14.7703 14.4876 14.2482 14.5397 13.6109C14.5913 12.9794 14.5909 12.1918 14.5909 11.1818H13.5909ZM8.27273 17.5C9.28275 17.5 10.0703 17.5004 10.7018 17.4488C11.3391 17.3967 11.8613 17.2892 12.3324 17.0492L11.8784 16.1582C11.5717 16.3144 11.1958 16.4051 10.6204 16.4521C10.0391 16.4996 9.29926 16.5 8.27273 16.5V17.5ZM13.2491 14.7875C12.9484 15.3777 12.4686 15.8575 11.8784 16.1582L12.3324 17.0492C13.1107 16.6526 13.7435 16.0198 14.1401 15.2415L13.2491 14.7875ZM8.27273 4.40909C9.29926 4.40909 10.0391 4.40948 10.6204 4.45697C11.1958 4.50399 11.5717 4.59466 11.8784 4.75093L12.3324 3.85993C11.8613 3.61986 11.3391 3.51236 10.7018 3.46029C10.0703 3.4087 9.28275 3.40909 8.27273 3.40909V4.40909ZM14.5909 9.72727C14.5909 8.71725 14.5913 7.92966 14.5397 7.2982C14.4876 6.66091 14.3801 6.13875 14.1401 5.66758L13.2491 6.12158C13.4053 6.42827 13.496 6.80418 13.543 7.37963C13.5905 7.96092 13.5909 8.70075 13.5909 9.72727H14.5909ZM11.8784 4.75093C12.4686 5.05163 12.9484 5.53143 13.2491 6.12158L14.1401 5.66758C13.7435 4.88928 13.1107 4.25649 12.3324 3.85993L11.8784 4.75093ZM6.81818 3.40909C5.80816 3.40909 5.02056 3.4087 4.38911 3.46029C3.75182 3.51236 3.22966 3.61986 2.75849 3.85993L3.21248 4.75093C3.51918 4.59466 3.89509 4.50399 4.47054 4.45697C5.05183 4.40948 5.79165 4.40909 6.81818 4.40909V3.40909ZM1.5 9.72727C1.5 8.70075 1.50039 7.96092 1.54788 7.37963C1.5949 6.80418 1.68557 6.42827 1.84184 6.12158L0.950837 5.66758C0.710766 6.13875 0.603272 6.66091 0.551203 7.2982C0.499611 7.92966 0.5 8.71725 0.5 9.72727H1.5ZM2.75849 3.85993C1.98019 4.25649 1.3474 4.88928 0.950837 5.66758L1.84184 6.12158C2.14254 5.53143 2.62234 5.05163 3.21248 4.75093L2.75849 3.85993ZM6.81818 1.5H13.3636V0.5H6.81818V1.5ZM16.5 4.63636V11.1818H17.5V4.63636H16.5ZM16.5 11.1818C16.5 12.5123 15.4214 13.5909 14.0909 13.5909V14.5909C15.9737 14.5909 17.5 13.0646 17.5 11.1818H16.5ZM13.3636 1.5C15.0958 1.5 16.5 2.9042 16.5 4.63636H17.5C17.5 2.35191 15.6481 0.5 13.3636 0.5V1.5ZM6.81818 0.5C4.93539 0.5 3.40909 2.0263 3.40909 3.90909H4.40909C4.40909 2.57859 5.48768 1.5 6.81818 1.5V0.5ZM4.98211 12.9976C6.39541 11.6447 8.6955 11.6447 10.1088 12.9976L10.8003 12.2752C9.0003 10.5521 6.09061 10.5521 4.29061 12.2752L4.98211 12.9976ZM8.99672 9.39047C8.99672 10.1129 8.37846 10.7355 7.56932 10.7355V11.7355C8.88913 11.7355 9.99672 10.7059 9.99672 9.39047H8.99672ZM7.56932 10.7355C6.76018 10.7355 6.14192 10.1129 6.14192 9.39047H5.14192C5.14192 10.7059 6.24952 11.7355 7.56932 11.7355V10.7355ZM6.14192 9.39047C6.14192 8.668 6.76018 8.04545 7.56932 8.04545V7.04545C6.24952 7.04545 5.14192 8.07499 5.14192 9.39047H6.14192ZM7.56932 8.04545C8.37846 8.04545 8.99672 8.668 8.99672 9.39047H9.99672C9.99672 8.07499 8.88913 7.04545 7.56932 7.04545V8.04545Z" fill="#191E2C"/>
</svg>
