<svg width="20" height="20" viewBox="0 0 20 20" fill="none" xmlns="http://www.w3.org/2000/svg">
<path d="M2 16.2815C2 17.2306 2.76938 18 3.71846 18H6.29615C7.24523 18 8.01461 17.2306 8.01461 16.2815V13.7038C8.01461 12.7548 7.24523 11.9854 6.29615 11.9854H3.71846C2.76938 11.9854 2 12.7548 2 13.7038V16.2815Z" stroke="#1C1C1C"/>
<path d="M2 6.83001C2 7.77909 2.76938 8.54847 3.71846 8.54847H6.29615C7.24523 8.54847 8.01461 7.77909 8.01461 6.83001V4.25232C8.01461 3.30324 7.24523 2.53386 6.29615 2.53386H3.71846C2.76938 2.53386 2 3.30324 2 4.25232V6.83001Z" stroke="#1C1C1C"/>
<path d="M11.421 4.32603C10.7499 4.99713 10.7499 6.0852 11.421 6.7563L13.2437 8.579C13.9148 9.2501 15.0029 9.2501 15.674 8.579L17.4967 6.7563C18.1678 6.0852 18.1678 4.99713 17.4967 4.32603L15.674 2.50333C15.0029 1.83222 13.9148 1.83222 13.2437 2.50333L11.421 4.32603Z" stroke="#1C1C1C"/>
<path d="M11.4515 16.2815C11.4515 17.2306 12.2209 18 13.17 18H15.7477C16.6968 18 17.4661 17.2306 17.4661 16.2815V13.7038C17.4661 12.7548 16.6968 11.9854 15.7477 11.9854H13.17C12.2209 11.9854 11.4515 12.7548 11.4515 13.7038V16.2815Z" stroke="#1C1C1C"/>
</svg>
