<svg width="16" height="16" viewBox="0 0 16 16" fill="none" xmlns="http://www.w3.org/2000/svg">
<path d="M5.66667 15V9.56883C5.66667 9.0689 6.189 8.66363 6.83333 8.66363H9.16667C9.811 8.66363 10.3333 9.0689 10.3333 9.56883V15M6.56747 1.38135L1.96657 4.15778C1.36662 4.51982 0.999899 5.16945 0.999908 5.87017L1 13.1896C1 14.1895 2.04467 15 3.33333 15H4.5H11.5H12.6667C13.9553 15 15 14.1895 15 13.1896V5.87015C15 5.16943 14.6333 4.51982 14.0333 4.15778L9.43253 1.38135C8.58994 0.872882 7.41006 0.872882 6.56747 1.38135Z" stroke="#FBFBFC" stroke-linecap="round"/>
</svg>
