<svg width="20" height="20" viewBox="0 0 20 20" fill="none" xmlns="http://www.w3.org/2000/svg">
<path d="M8.6 16.1176C8.6 17.1572 7.76426 18 6.73333 18C5.7024 18 4.86667 17.1572 4.86667 16.1176C4.86667 15.0781 5.7024 14.2353 6.73333 14.2353C7.76426 14.2353 8.6 15.0781 8.6 16.1176ZM8.6 16.1176L17 14.2353M5.8 9.52941L12.3639 8.0585C13.3757 7.83178 14.3769 8.47966 14.5941 9.50162L15.6 14.2353M4.86667 3.88235L8.5827 3.04963C9.61288 2.81878 10.6279 3.49431 10.8223 4.54025L11.4 7.64698M5.8 14.431L4.12 2.57213C4.04309 2.02923 3.38455 1.80788 3 2.19566" stroke="white" stroke-linecap="round"/>
</svg>
