<svg width="18" height="18" viewBox="0 0 18 18" fill="none" xmlns="http://www.w3.org/2000/svg">
<path d="M2.98549 16.6037L3.21248 16.1582H3.21248L2.98549 16.6037ZM1.39634 15.0145L1.84184 14.7875H1.84184L1.39634 15.0145ZM16.6037 15.0145L16.1582 14.7875L16.6037 15.0145ZM15.0145 16.6037L14.7875 16.1582L15.0145 16.6037ZM15.0145 1.39634L14.7875 1.84184V1.84184L15.0145 1.39634ZM16.6037 2.98549L16.1582 3.21248V3.21248L16.6037 2.98549ZM2.98549 1.39634L3.21248 1.84184L2.98549 1.39634ZM1.39634 2.98549L1.84184 3.21248L1.39634 2.98549ZM4.98992 6.46463C4.79465 6.26937 4.47807 6.26937 4.28281 6.46463C4.08755 6.65989 4.08755 6.97647 4.28281 7.17174L4.98992 6.46463ZM6.56105 8.74287L6.91461 8.38932V8.38932L6.56105 8.74287ZM6.56105 9.25713L6.91461 9.61068L6.56105 9.25713ZM4.28281 10.8283C4.08755 11.0235 4.08755 11.3401 4.28281 11.5354C4.47807 11.7306 4.79465 11.7306 4.98992 11.5354L4.28281 10.8283ZM9 5.59091C8.72386 5.59091 8.5 5.81477 8.5 6.09091C8.5 6.36705 8.72386 6.59091 9 6.59091V5.59091ZM13.3636 6.59091C13.6398 6.59091 13.8636 6.36705 13.8636 6.09091C13.8636 5.81477 13.6398 5.59091 13.3636 5.59091V6.59091ZM10.4545 8.5C10.1784 8.5 9.95455 8.72386 9.95455 9C9.95455 9.27614 10.1784 9.5 10.4545 9.5V8.5ZM13.3636 9.5C13.6398 9.5 13.8636 9.27614 13.8636 9C13.8636 8.72386 13.6398 8.5 13.3636 8.5V9.5ZM9 11.4091C8.72386 11.4091 8.5 11.6329 8.5 11.9091C8.5 12.1852 8.72386 12.4091 9 12.4091V11.4091ZM13.3636 12.4091C13.6398 12.4091 13.8636 12.1852 13.8636 11.9091C13.8636 11.6329 13.6398 11.4091 13.3636 11.4091V12.4091ZM6.81818 1.5H11.1818V0.5H6.81818V1.5ZM16.5 6.81818V11.1818H17.5V6.81818H16.5ZM11.1818 16.5H6.81818V17.5H11.1818V16.5ZM1.5 11.1818V6.81818H0.5V11.1818H1.5ZM6.81818 16.5C5.79165 16.5 5.05183 16.4996 4.47054 16.4521C3.89509 16.4051 3.51918 16.3144 3.21248 16.1582L2.75849 17.0492C3.22966 17.2892 3.75182 17.3967 4.38911 17.4488C5.02056 17.5004 5.80816 17.5 6.81818 17.5V16.5ZM0.5 11.1818C0.5 12.1918 0.499611 12.9794 0.551203 13.6109C0.603272 14.2482 0.710766 14.7703 0.950837 15.2415L1.84184 14.7875C1.68557 14.4808 1.5949 14.1049 1.54788 13.5295C1.50039 12.9482 1.5 12.2083 1.5 11.1818H0.5ZM3.21248 16.1582C2.62234 15.8575 2.14254 15.3777 1.84184 14.7875L0.950837 15.2415C1.3474 16.0198 1.98019 16.6526 2.75849 17.0492L3.21248 16.1582ZM16.5 11.1818C16.5 12.2083 16.4996 12.9482 16.4521 13.5295C16.4051 14.1049 16.3144 14.4808 16.1582 14.7875L17.0492 15.2415C17.2892 14.7703 17.3967 14.2482 17.4488 13.6109C17.5004 12.9794 17.5 12.1918 17.5 11.1818H16.5ZM11.1818 17.5C12.1918 17.5 12.9794 17.5004 13.6109 17.4488C14.2482 17.3967 14.7703 17.2892 15.2415 17.0492L14.7875 16.1582C14.4808 16.3144 14.1049 16.4051 13.5295 16.4521C12.9482 16.4996 12.2083 16.5 11.1818 16.5V17.5ZM16.1582 14.7875C15.8575 15.3777 15.3777 15.8575 14.7875 16.1582L15.2415 17.0492C16.0198 16.6526 16.6526 16.0198 17.0492 15.2415L16.1582 14.7875ZM11.1818 1.5C12.2083 1.5 12.9482 1.50039 13.5295 1.54788C14.1049 1.5949 14.4808 1.68557 14.7875 1.84184L15.2415 0.950837C14.7703 0.710766 14.2482 0.603272 13.6109 0.551203C12.9794 0.499611 12.1918 0.5 11.1818 0.5V1.5ZM17.5 6.81818C17.5 5.80816 17.5004 5.02056 17.4488 4.38911C17.3967 3.75182 17.2892 3.22966 17.0492 2.75849L16.1582 3.21248C16.3144 3.51918 16.4051 3.89509 16.4521 4.47054C16.4996 5.05183 16.5 5.79165 16.5 6.81818H17.5ZM14.7875 1.84184C15.3777 2.14254 15.8575 2.62234 16.1582 3.21248L17.0492 2.75849C16.6526 1.98019 16.0198 1.3474 15.2415 0.950837L14.7875 1.84184ZM6.81818 0.5C5.80816 0.5 5.02056 0.499611 4.38911 0.551203C3.75182 0.603272 3.22966 0.710766 2.75849 0.950837L3.21248 1.84184C3.51918 1.68557 3.89509 1.5949 4.47054 1.54788C5.05183 1.50039 5.79165 1.5 6.81818 1.5V0.5ZM1.5 6.81818C1.5 5.79165 1.50039 5.05183 1.54788 4.47054C1.5949 3.89509 1.68557 3.51918 1.84184 3.21248L0.950837 2.75849C0.710766 3.22966 0.603272 3.75182 0.551203 4.38911C0.499611 5.02056 0.5 5.80816 0.5 6.81818H1.5ZM2.75849 0.950837C1.98019 1.3474 1.3474 1.98019 0.950837 2.75849L1.84184 3.21248C2.14254 2.62234 2.62234 2.14254 3.21248 1.84184L2.75849 0.950837ZM4.28281 7.17174L6.2075 9.09642L6.91461 8.38932L4.98992 6.46463L4.28281 7.17174ZM6.2075 8.90358L4.28281 10.8283L4.98992 11.5354L6.91461 9.61068L6.2075 8.90358ZM6.2075 9.09642C6.15425 9.04317 6.15425 8.95683 6.2075 8.90358L6.91461 9.61068C7.25188 9.27341 7.25188 8.72659 6.91461 8.38932L6.2075 9.09642ZM9 6.59091L13.3636 6.59091V5.59091H9V6.59091ZM10.4545 9.5H13.3636V8.5H10.4545V9.5ZM9 12.4091H13.3636V11.4091H9V12.4091Z" fill="white"/>
</svg>
