<svg width="495" height="550" viewBox="0 0 495 550" fill="none" xmlns="http://www.w3.org/2000/svg">
<rect width="495" height="550" rx="34" fill="white" fill-opacity="0.03"/>
<rect x="322" y="16" width="157" height="56" rx="28" fill="white" fill-opacity="0.05"/>
<path d="M362 50L373.143 38.8571M368 38H372.788C373.457 38 374 38.5427 374 39.2122V44" stroke="white" stroke-linecap="round"/>
<path d="M394.748 43.918C395.177 44.142 395.513 44.45 395.756 44.842C395.999 45.234 396.12 45.6867 396.12 46.2C396.12 47.0027 395.835 47.67 395.266 48.202C394.697 48.734 394.001 49 393.18 49H388.98V39.2H392.872C393.675 39.2 394.351 39.4613 394.902 39.984C395.462 40.4973 395.742 41.1413 395.742 41.916C395.742 42.7653 395.411 43.4327 394.748 43.918ZM392.872 40.712H390.59V43.288H392.872C393.227 43.288 393.525 43.1667 393.768 42.924C394.011 42.672 394.132 42.364 394.132 42C394.132 41.636 394.011 41.3327 393.768 41.09C393.525 40.838 393.227 40.712 392.872 40.712ZM393.18 47.488C393.553 47.488 393.866 47.3573 394.118 47.096C394.379 46.8253 394.51 46.4987 394.51 46.116C394.51 45.7333 394.379 45.4113 394.118 45.15C393.866 44.8793 393.553 44.744 393.18 44.744H390.59V47.488H393.18ZM405.617 42V43.456H402.439V49H400.927V42H405.617ZM411.912 42H413.424V49H411.912V47.992C411.343 48.7853 410.526 49.182 409.462 49.182C408.501 49.182 407.68 48.8273 406.998 48.118C406.317 47.3993 405.976 46.5267 405.976 45.5C405.976 44.464 406.317 43.5913 406.998 42.882C407.68 42.1727 408.501 41.818 409.462 41.818C410.526 41.818 411.343 42.21 411.912 42.994V42ZM408.118 47.11C408.538 47.53 409.066 47.74 409.7 47.74C410.335 47.74 410.862 47.53 411.282 47.11C411.702 46.6807 411.912 46.144 411.912 45.5C411.912 44.856 411.702 44.324 411.282 43.904C410.862 43.4747 410.335 43.26 409.7 43.26C409.066 43.26 408.538 43.4747 408.118 43.904C407.698 44.324 407.488 44.856 407.488 45.5C407.488 46.144 407.698 46.6807 408.118 47.11ZM419.149 41.818C420.11 41.818 420.931 42.1773 421.613 42.896C422.294 43.6053 422.635 44.4733 422.635 45.5C422.635 46.536 422.294 47.4087 421.613 48.118C420.931 48.8273 420.11 49.182 419.149 49.182C418.085 49.182 417.268 48.79 416.699 48.006V51.8H415.187V42H416.699V43.008C417.268 42.2147 418.085 41.818 419.149 41.818ZM417.329 47.11C417.749 47.53 418.276 47.74 418.911 47.74C419.545 47.74 420.073 47.53 420.493 47.11C420.913 46.6807 421.123 46.144 421.123 45.5C421.123 44.856 420.913 44.324 420.493 43.904C420.073 43.4747 419.545 43.26 418.911 43.26C418.276 43.26 417.749 43.4747 417.329 43.904C416.909 44.324 416.699 44.856 416.699 45.5C416.699 46.144 416.909 46.6807 417.329 47.11ZM429.549 42H431.061V49H429.549V47.992C428.98 48.7853 428.163 49.182 427.099 49.182C426.138 49.182 425.316 48.8273 424.635 48.118C423.954 47.3993 423.613 46.5267 423.613 45.5C423.613 44.464 423.954 43.5913 424.635 42.882C425.316 42.1727 426.138 41.818 427.099 41.818C428.163 41.818 428.98 42.21 429.549 42.994V42ZM425.755 47.11C426.175 47.53 426.702 47.74 427.337 47.74C427.972 47.74 428.499 47.53 428.919 47.11C429.339 46.6807 429.549 46.144 429.549 45.5C429.549 44.856 429.339 44.324 428.919 43.904C428.499 43.4747 427.972 43.26 427.337 43.26C426.702 43.26 426.175 43.4747 425.755 43.904C425.335 44.324 425.125 44.856 425.125 45.5C425.125 46.144 425.335 46.6807 425.755 47.11ZM441.839 49H440.117L437.737 45.766V49H436.253V45.794L433.873 49H432.151L434.881 45.43L432.291 42H434.013L436.253 45.066V42H437.737V45.08L439.977 42H441.699L439.109 45.43L441.839 49Z" fill="white"/>
<rect x="16" y="478" width="463" height="56" rx="28" fill="white" fill-opacity="0.03"/>
<rect x="16.5" y="478.5" width="55" height="55" rx="27.5" stroke="white" stroke-opacity="0.06"/>
<path d="M52 506H36.6899M39.52 502L36.3449 505.175C35.885 505.631 35.885 506.369 36.3449 506.825L39.52 510" stroke="white" stroke-linecap="round"/>
<rect x="423.5" y="478.5" width="55" height="55" rx="27.5" stroke="white" stroke-opacity="0.06"/>
<path d="M443 506L458.31 506M455.48 510L458.655 506.825C459.115 506.369 459.115 505.631 458.655 505.175L455.48 502" stroke="white" stroke-linecap="round"/>
<path d="M171.814 501.2V502.74H167.894V511H166.284V501.2H171.814ZM175.48 503.818C176.441 503.818 177.262 504.177 177.944 504.896C178.625 505.605 178.966 506.473 178.966 507.5C178.966 508.536 178.625 509.409 177.944 510.118C177.262 510.827 176.441 511.182 175.48 511.182C174.416 511.182 173.599 510.79 173.03 510.006V513.8H171.518V504H173.03V505.008C173.599 504.215 174.416 503.818 175.48 503.818ZM173.66 509.11C174.08 509.53 174.607 509.74 175.242 509.74C175.876 509.74 176.404 509.53 176.824 509.11C177.244 508.681 177.454 508.144 177.454 507.5C177.454 506.856 177.244 506.324 176.824 505.904C176.404 505.475 175.876 505.26 175.242 505.26C174.607 505.26 174.08 505.475 173.66 505.904C173.24 506.324 173.03 506.856 173.03 507.5C173.03 508.144 173.24 508.681 173.66 509.11ZM184.781 504H186.391L183.703 511.224C183.376 512.111 182.919 512.773 182.331 513.212C181.743 513.651 181.061 513.847 180.287 513.8V512.386C180.763 512.414 181.145 512.316 181.435 512.092C181.733 511.877 181.971 511.527 182.149 511.042L182.191 510.944L179.251 504H180.861L182.989 509.096L184.781 504ZM191.133 507.416C191.88 507.752 192.253 508.307 192.253 509.082C192.253 509.679 192.011 510.179 191.525 510.58C191.04 510.981 190.363 511.182 189.495 511.182C188.086 511.182 187.134 510.622 186.639 509.502L187.871 508.774C188.123 509.474 188.669 509.824 189.509 509.824C189.901 509.824 190.209 509.745 190.433 509.586C190.657 509.418 190.769 509.199 190.769 508.928C190.769 508.685 190.681 508.494 190.503 508.354C190.326 508.205 190.079 508.13 189.761 508.13H188.767V506.8H189.509C189.817 506.8 190.055 506.73 190.223 506.59C190.401 506.441 190.489 506.24 190.489 505.988C190.489 505.745 190.391 505.549 190.195 505.4C189.999 505.241 189.738 505.162 189.411 505.162C188.711 505.162 188.226 505.47 187.955 506.086L186.723 505.386C187.246 504.341 188.133 503.818 189.383 503.818C190.167 503.818 190.788 504.019 191.245 504.42C191.712 504.812 191.945 505.293 191.945 505.862C191.945 506.562 191.675 507.08 191.133 507.416ZM196.792 511.182C195.766 511.182 194.893 510.827 194.174 510.118C193.456 509.409 193.096 508.536 193.096 507.5C193.096 506.464 193.456 505.591 194.174 504.882C194.893 504.173 195.766 503.818 196.792 503.818C197.828 503.818 198.701 504.173 199.41 504.882C200.129 505.591 200.488 506.464 200.488 507.5C200.488 508.536 200.129 509.409 199.41 510.118C198.701 510.827 197.828 511.182 196.792 511.182ZM195.238 509.082C195.658 509.502 196.176 509.712 196.792 509.712C197.408 509.712 197.926 509.502 198.346 509.082C198.766 508.662 198.976 508.135 198.976 507.5C198.976 506.865 198.766 506.338 198.346 505.918C197.926 505.498 197.408 505.288 196.792 505.288C196.176 505.288 195.658 505.498 195.238 505.918C194.818 506.338 194.608 506.865 194.608 507.5C194.608 508.135 194.818 508.662 195.238 509.082ZM206.7 507.402C207.39 507.719 207.736 508.256 207.736 509.012C207.736 509.6 207.535 510.081 207.134 510.454C206.742 510.818 206.177 511 205.44 511H201.856V504H205.16C205.878 504 206.434 504.182 206.826 504.546C207.227 504.901 207.428 505.363 207.428 505.932C207.428 506.595 207.185 507.085 206.7 507.402ZM205.048 505.288H203.298V506.842H205.048C205.664 506.842 205.972 506.581 205.972 506.058C205.972 505.545 205.664 505.288 205.048 505.288ZM205.3 509.684C205.934 509.684 206.252 509.409 206.252 508.858C206.252 508.615 206.168 508.429 206 508.298C205.832 508.158 205.598 508.088 205.3 508.088H203.298V509.684H205.3ZM212.269 511.182C211.242 511.182 210.37 510.827 209.651 510.118C208.932 509.409 208.573 508.536 208.573 507.5C208.573 506.464 208.932 505.591 209.651 504.882C210.37 504.173 211.242 503.818 212.269 503.818C213.305 503.818 214.178 504.173 214.887 504.882C215.606 505.591 215.965 506.464 215.965 507.5C215.965 508.536 215.606 509.409 214.887 510.118C214.178 510.827 213.305 511.182 212.269 511.182ZM210.715 509.082C211.135 509.502 211.653 509.712 212.269 509.712C212.885 509.712 213.403 509.502 213.823 509.082C214.243 508.662 214.453 508.135 214.453 507.5C214.453 506.865 214.243 506.338 213.823 505.918C213.403 505.498 212.885 505.288 212.269 505.288C211.653 505.288 211.135 505.498 210.715 505.918C210.295 506.338 210.085 506.865 210.085 507.5C210.085 508.135 210.295 508.662 210.715 509.082ZM218.48 503.02V501.704H222.4V503.02H218.48ZM222.4 504H223.562V511H222.078V506.548L218.494 511H217.332V504H218.816V508.438L222.4 504ZM234.361 504H235.873V511H234.361V509.992C233.791 510.785 232.975 511.182 231.911 511.182C230.949 511.182 230.128 510.827 229.447 510.118C228.765 509.399 228.425 508.527 228.425 507.5C228.425 506.464 228.765 505.591 229.447 504.882C230.128 504.173 230.949 503.818 231.911 503.818C232.975 503.818 233.791 504.21 234.361 504.994V504ZM230.567 509.11C230.987 509.53 231.514 509.74 232.149 509.74C232.783 509.74 233.311 509.53 233.731 509.11C234.151 508.681 234.361 508.144 234.361 507.5C234.361 506.856 234.151 506.324 233.731 505.904C233.311 505.475 232.783 505.26 232.149 505.26C231.514 505.26 230.987 505.475 230.567 505.904C230.147 506.324 229.937 506.856 229.937 507.5C229.937 508.144 230.147 508.681 230.567 509.11ZM242.479 507.402C243.17 507.719 243.515 508.256 243.515 509.012C243.515 509.6 243.314 510.081 242.913 510.454C242.521 510.818 241.956 511 241.219 511H237.635V504H240.939C241.658 504 242.213 504.182 242.605 504.546C243.006 504.901 243.207 505.363 243.207 505.932C243.207 506.595 242.964 507.085 242.479 507.402ZM240.827 505.288H239.077V506.842H240.827C241.443 506.842 241.751 506.581 241.751 506.058C241.751 505.545 241.443 505.288 240.827 505.288ZM241.079 509.684C241.714 509.684 242.031 509.409 242.031 508.858C242.031 508.615 241.947 508.429 241.779 508.298C241.611 508.158 241.378 508.088 241.079 508.088H239.077V509.684H241.079ZM249.887 504V505.456H247.605V511H246.093V505.456H243.797V504H249.887ZM253.941 511.182C252.914 511.182 252.042 510.827 251.323 510.118C250.604 509.409 250.245 508.536 250.245 507.5C250.245 506.464 250.604 505.591 251.323 504.882C252.042 504.173 252.914 503.818 253.941 503.818C254.977 503.818 255.85 504.173 256.559 504.882C257.278 505.591 257.637 506.464 257.637 507.5C257.637 508.536 257.278 509.409 256.559 510.118C255.85 510.827 254.977 511.182 253.941 511.182ZM252.387 509.082C252.807 509.502 253.325 509.712 253.941 509.712C254.557 509.712 255.075 509.502 255.495 509.082C255.915 508.662 256.125 508.135 256.125 507.5C256.125 506.865 255.915 506.338 255.495 505.918C255.075 505.498 254.557 505.288 253.941 505.288C253.325 505.288 252.807 505.498 252.387 505.918C251.967 506.338 251.757 506.865 251.757 507.5C251.757 508.135 251.967 508.662 252.387 509.082ZM264.079 504V505.456H261.797V511H260.285V505.456H257.989V504H264.079ZM269.064 503.818C270.025 503.818 270.846 504.177 271.528 504.896C272.209 505.605 272.55 506.473 272.55 507.5C272.55 508.536 272.209 509.409 271.528 510.118C270.846 510.827 270.025 511.182 269.064 511.182C268 511.182 267.183 510.79 266.614 510.006V513.8H265.102V504H266.614V505.008C267.183 504.215 268 503.818 269.064 503.818ZM267.244 509.11C267.664 509.53 268.191 509.74 268.826 509.74C269.46 509.74 269.988 509.53 270.408 509.11C270.828 508.681 271.038 508.144 271.038 507.5C271.038 506.856 270.828 506.324 270.408 505.904C269.988 505.475 269.46 505.26 268.826 505.26C268.191 505.26 267.664 505.475 267.244 505.904C266.824 506.324 266.614 506.856 266.614 507.5C266.614 508.144 266.824 508.681 267.244 509.11ZM279.464 504H280.976V511H279.464V509.992C278.895 510.785 278.078 511.182 277.014 511.182C276.053 511.182 275.231 510.827 274.55 510.118C273.869 509.399 273.528 508.527 273.528 507.5C273.528 506.464 273.869 505.591 274.55 504.882C275.231 504.173 276.053 503.818 277.014 503.818C278.078 503.818 278.895 504.21 279.464 504.994V504ZM275.67 509.11C276.09 509.53 276.617 509.74 277.252 509.74C277.887 509.74 278.414 509.53 278.834 509.11C279.254 508.681 279.464 508.144 279.464 507.5C279.464 506.856 279.254 506.324 278.834 505.904C278.414 505.475 277.887 505.26 277.252 505.26C276.617 505.26 276.09 505.475 275.67 505.904C275.25 506.324 275.04 506.856 275.04 507.5C275.04 508.144 275.25 508.681 275.67 509.11ZM287.456 504H288.968V511H287.456V508.214H284.25V511H282.738V504H284.25V506.786H287.456V504ZM294.027 511.182C292.972 511.182 292.09 510.827 291.381 510.118C290.681 509.409 290.331 508.536 290.331 507.5C290.331 506.455 290.681 505.582 291.381 504.882C292.09 504.173 292.972 503.818 294.027 503.818C294.708 503.818 295.329 503.981 295.889 504.308C296.449 504.635 296.869 505.073 297.149 505.624L295.847 506.38C295.688 506.044 295.445 505.783 295.119 505.596C294.801 505.4 294.433 505.302 294.013 505.302C293.397 505.302 292.879 505.512 292.459 505.932C292.048 506.352 291.843 506.875 291.843 507.5C291.843 508.125 292.048 508.648 292.459 509.068C292.879 509.488 293.397 509.698 294.013 509.698C294.423 509.698 294.792 509.6 295.119 509.404C295.455 509.208 295.707 508.947 295.875 508.62L297.177 509.362C296.878 509.922 296.449 510.365 295.889 510.692C295.329 511.019 294.708 511.182 294.027 511.182ZM304.541 504V511H303.029V505.428H299.823V511H298.311V504H304.541ZM309.599 511.182C308.572 511.182 307.7 510.827 306.981 510.118C306.262 509.409 305.903 508.536 305.903 507.5C305.903 506.464 306.262 505.591 306.981 504.882C307.7 504.173 308.572 503.818 309.599 503.818C310.635 503.818 311.508 504.173 312.217 504.882C312.936 505.591 313.295 506.464 313.295 507.5C313.295 508.536 312.936 509.409 312.217 510.118C311.508 510.827 310.635 511.182 309.599 511.182ZM308.045 509.082C308.465 509.502 308.983 509.712 309.599 509.712C310.215 509.712 310.733 509.502 311.153 509.082C311.573 508.662 311.783 508.135 311.783 507.5C311.783 506.865 311.573 506.338 311.153 505.918C310.733 505.498 310.215 505.288 309.599 505.288C308.983 505.288 308.465 505.498 308.045 505.918C307.625 506.338 307.415 506.865 307.415 507.5C307.415 508.135 307.625 508.662 308.045 509.082ZM318.624 503.818C319.586 503.818 320.407 504.177 321.088 504.896C321.77 505.605 322.11 506.473 322.11 507.5C322.11 508.536 321.77 509.409 321.088 510.118C320.407 510.827 319.586 511.182 318.624 511.182C317.56 511.182 316.744 510.79 316.174 510.006V513.8H314.662V504H316.174V505.008C316.744 504.215 317.56 503.818 318.624 503.818ZM316.804 509.11C317.224 509.53 317.752 509.74 318.386 509.74C319.021 509.74 319.548 509.53 319.968 509.11C320.388 508.681 320.598 508.144 320.598 507.5C320.598 506.856 320.388 506.324 319.968 505.904C319.548 505.475 319.021 505.26 318.386 505.26C317.752 505.26 317.224 505.475 316.804 505.904C316.384 506.324 316.174 506.856 316.174 507.5C316.174 508.144 316.384 508.681 316.804 509.11ZM328.555 504V505.456H326.273V511H324.761V505.456H322.465V504H328.555Z" fill="white"/>
<mask id="path-11-inside-1_2464_4110" fill="white">
<path d="M377.996 314.134C383.518 314.183 387.993 318.705 387.552 324.21C384.936 356.917 370.933 387.787 347.828 411.301C324.731 434.807 294.184 449.287 261.648 452.377C256.149 452.899 251.564 448.487 251.439 442.965L250.625 406.974C250.5 401.453 254.891 396.938 260.358 396.153C278.385 393.564 295.182 385.124 308.097 371.981C321.019 358.83 329.196 341.844 331.518 323.705C332.219 318.227 336.674 313.772 342.197 313.821L377.996 314.134Z"/>
</mask>
<path d="M377.996 314.134C383.518 314.183 387.993 318.705 387.552 324.21C384.936 356.917 370.933 387.787 347.828 411.301C324.731 434.807 294.184 449.287 261.648 452.377C256.149 452.899 251.564 448.487 251.439 442.965L250.625 406.974C250.5 401.453 254.891 396.938 260.358 396.153C278.385 393.564 295.182 385.124 308.097 371.981C321.019 358.83 329.196 341.844 331.518 323.705C332.219 318.227 336.674 313.772 342.197 313.821L377.996 314.134Z" stroke="url(#paint0_linear_2464_4110)" stroke-width="120" stroke-linejoin="round" mask="url(#path-11-inside-1_2464_4110)"/>
<mask id="path-12-inside-2_2464_4110" fill="white">
<path d="M249.126 183.006C249.174 177.483 253.697 173.007 259.202 173.455C291.649 176.096 322.27 190.145 345.599 213.316C368.946 236.505 383.325 267.177 386.385 299.845C386.9 305.343 382.49 309.926 376.97 310.052L341.413 310.865C335.891 310.991 331.373 306.598 330.598 301.129C328.032 283.016 319.646 266.139 306.584 253.165C293.537 240.207 276.69 232.001 258.697 229.659C253.221 228.946 248.767 224.492 248.815 218.97L249.126 183.006Z"/>
</mask>
<path d="M249.126 183.006C249.174 177.483 253.697 173.007 259.202 173.455C291.649 176.096 322.27 190.145 345.599 213.316C368.946 236.505 383.325 267.177 386.385 299.845C386.9 305.343 382.49 309.926 376.97 310.052L341.413 310.865C335.891 310.991 331.373 306.598 330.598 301.129C328.032 283.016 319.646 266.139 306.584 253.165C293.537 240.207 276.69 232.001 258.697 229.659C253.221 228.946 248.767 224.492 248.815 218.97L249.126 183.006Z" stroke="url(#paint1_linear_2464_4110)" stroke-width="120" stroke-linejoin="round" mask="url(#path-12-inside-2_2464_4110)"/>
<mask id="path-13-inside-3_2464_4110" fill="white">
<path d="M246.866 442.995C246.817 448.518 242.295 452.993 236.79 452.551C203.713 449.895 172.528 435.554 148.929 411.919C122.967 385.917 108.268 350.75 108.004 314.007C107.739 277.264 121.931 241.889 147.516 215.517C170.773 191.544 201.748 176.756 234.783 173.625C240.281 173.104 244.868 177.513 244.995 183.035L245.827 218.991C245.954 224.512 241.564 229.03 236.097 229.812C217.766 232.435 200.709 241.061 187.685 254.486C172.327 270.316 163.809 291.549 163.968 313.605C164.126 335.66 172.949 356.768 188.533 372.376C201.749 385.612 218.928 393.992 237.295 396.35C242.773 397.054 247.228 401.508 247.179 407.031L246.866 442.995Z"/>
</mask>
<path d="M246.866 442.995C246.817 448.518 242.295 452.993 236.79 452.551C203.713 449.895 172.528 435.554 148.929 411.919C122.967 385.917 108.268 350.75 108.004 314.007C107.739 277.264 121.931 241.889 147.516 215.517C170.773 191.544 201.748 176.756 234.783 173.625C240.281 173.104 244.868 177.513 244.995 183.035L245.827 218.991C245.954 224.512 241.564 229.03 236.097 229.812C217.766 232.435 200.709 241.061 187.685 254.486C172.327 270.316 163.809 291.549 163.968 313.605C164.126 335.66 172.949 356.768 188.533 372.376C201.749 385.612 218.928 393.992 237.295 396.35C242.773 397.054 247.228 401.508 247.179 407.031L246.866 442.995Z" stroke="url(#paint2_linear_2464_4110)" stroke-width="120" stroke-linejoin="round" mask="url(#path-13-inside-3_2464_4110)"/>
<rect x="359" y="207" width="65" height="27" rx="8" fill="white"/>
<rect x="352.5" y="226.5" width="13" height="13" rx="6.5" fill="white" stroke="#1C1C1C"/>
<path d="M371.546 214.4H373.346V227H371.276V216.614L368.738 217.334L368.234 215.57L371.546 214.4ZM379.647 219.152C380.847 219.152 381.861 219.512 382.689 220.232C383.517 220.94 383.931 221.924 383.931 223.184C383.931 224.444 383.505 225.434 382.653 226.154C381.801 226.874 380.757 227.234 379.521 227.234C378.525 227.234 377.643 227.006 376.875 226.55C376.107 226.082 375.561 225.41 375.237 224.534L377.019 223.508C377.355 224.648 378.189 225.218 379.521 225.218C380.229 225.218 380.793 225.038 381.213 224.678C381.645 224.306 381.861 223.808 381.861 223.184C381.861 222.56 381.651 222.068 381.231 221.708C380.811 221.348 380.253 221.168 379.557 221.168H375.885L376.371 214.4H383.391V216.344H378.279L378.063 219.152H379.647ZM391.67 223.328C391.814 224.012 392.144 224.54 392.66 224.912C393.176 225.272 393.806 225.452 394.55 225.452C395.582 225.452 396.356 225.08 396.872 224.336L398.474 225.272C397.586 226.58 396.272 227.234 394.532 227.234C393.068 227.234 391.886 226.79 390.986 225.902C390.086 225.002 389.636 223.868 389.636 222.5C389.636 221.156 390.08 220.034 390.968 219.134C391.856 218.222 392.996 217.766 394.388 217.766C395.708 217.766 396.788 218.228 397.628 219.152C398.48 220.076 398.906 221.198 398.906 222.518C398.906 222.722 398.882 222.992 398.834 223.328H391.67ZM391.652 221.744H396.944C396.812 221.012 396.506 220.46 396.026 220.088C395.558 219.716 395.006 219.53 394.37 219.53C393.65 219.53 393.05 219.728 392.57 220.124C392.09 220.52 391.784 221.06 391.652 221.744ZM408.185 225.164H409.391V229.412H407.483V227H401.309V229.412H399.401V225.164H400.499C401.051 224.384 401.327 223.298 401.327 221.906V218H408.185V225.164ZM402.641 225.164H406.277V219.782H403.235V221.906C403.235 223.19 403.037 224.276 402.641 225.164ZM413.094 226.82C412.83 227.084 412.512 227.216 412.14 227.216C411.768 227.216 411.45 227.084 411.186 226.82C410.922 226.556 410.79 226.238 410.79 225.866C410.79 225.494 410.916 225.176 411.168 224.912C411.432 224.648 411.756 224.516 412.14 224.516C412.512 224.516 412.83 224.648 413.094 224.912C413.358 225.176 413.49 225.494 413.49 225.866C413.49 226.238 413.358 226.556 413.094 226.82Z" fill="black"/>
<rect x="362" y="371" width="65" height="27" rx="8" fill="white"/>
<rect x="355.5" y="390.5" width="13" height="13" rx="6.5" fill="white" stroke="#1C1C1C"/>
<path d="M374.546 378.4H376.346V391H374.276V380.614L371.738 381.334L371.234 379.57L374.546 378.4ZM382.647 383.152C383.847 383.152 384.861 383.512 385.689 384.232C386.517 384.94 386.931 385.924 386.931 387.184C386.931 388.444 386.505 389.434 385.653 390.154C384.801 390.874 383.757 391.234 382.521 391.234C381.525 391.234 380.643 391.006 379.875 390.55C379.107 390.082 378.561 389.41 378.237 388.534L380.019 387.508C380.355 388.648 381.189 389.218 382.521 389.218C383.229 389.218 383.793 389.038 384.213 388.678C384.645 388.306 384.861 387.808 384.861 387.184C384.861 386.56 384.651 386.068 384.231 385.708C383.811 385.348 383.253 385.168 382.557 385.168H378.885L379.371 378.4H386.391V380.344H381.279L381.063 383.152H382.647ZM394.67 387.328C394.814 388.012 395.144 388.54 395.66 388.912C396.176 389.272 396.806 389.452 397.55 389.452C398.582 389.452 399.356 389.08 399.872 388.336L401.474 389.272C400.586 390.58 399.272 391.234 397.532 391.234C396.068 391.234 394.886 390.79 393.986 389.902C393.086 389.002 392.636 387.868 392.636 386.5C392.636 385.156 393.08 384.034 393.968 383.134C394.856 382.222 395.996 381.766 397.388 381.766C398.708 381.766 399.788 382.228 400.628 383.152C401.48 384.076 401.906 385.198 401.906 386.518C401.906 386.722 401.882 386.992 401.834 387.328H394.67ZM394.652 385.744H399.944C399.812 385.012 399.506 384.46 399.026 384.088C398.558 383.716 398.006 383.53 397.37 383.53C396.65 383.53 396.05 383.728 395.57 384.124C395.09 384.52 394.784 385.06 394.652 385.744ZM411.185 389.164H412.391V393.412H410.483V391H404.309V393.412H402.401V389.164H403.499C404.051 388.384 404.327 387.298 404.327 385.906V382H411.185V389.164ZM405.641 389.164H409.277V383.782H406.235V385.906C406.235 387.19 406.037 388.276 405.641 389.164ZM416.094 390.82C415.83 391.084 415.512 391.216 415.14 391.216C414.768 391.216 414.45 391.084 414.186 390.82C413.922 390.556 413.79 390.238 413.79 389.866C413.79 389.494 413.916 389.176 414.168 388.912C414.432 388.648 414.756 388.516 415.14 388.516C415.512 388.516 415.83 388.648 416.094 388.912C416.358 389.176 416.49 389.494 416.49 389.866C416.49 390.238 416.358 390.556 416.094 390.82Z" fill="black"/>
<rect x="42" y="270" width="65" height="27" rx="8" fill="white"/>
<rect x="100.5" y="289.5" width="13" height="13" rx="6.5" fill="white" stroke="#1C1C1C"/>
<path d="M54.546 278.4H56.346V291H54.276V280.614L51.738 281.334L51.234 279.57L54.546 278.4ZM62.6473 283.152C63.8473 283.152 64.8613 283.512 65.6893 284.232C66.5173 284.94 66.9313 285.924 66.9313 287.184C66.9313 288.444 66.5053 289.434 65.6533 290.154C64.8013 290.874 63.7573 291.234 62.5213 291.234C61.5253 291.234 60.6433 291.006 59.8753 290.55C59.1073 290.082 58.5613 289.41 58.2373 288.534L60.0193 287.508C60.3553 288.648 61.1893 289.218 62.5213 289.218C63.2293 289.218 63.7933 289.038 64.2133 288.678C64.6453 288.306 64.8613 287.808 64.8613 287.184C64.8613 286.56 64.6513 286.068 64.2313 285.708C63.8113 285.348 63.2533 285.168 62.5573 285.168H58.8853L59.3713 278.4H66.3913V280.344H61.2793L61.0633 283.152H62.6473ZM74.6699 287.328C74.8139 288.012 75.1439 288.54 75.6599 288.912C76.1759 289.272 76.8059 289.452 77.5499 289.452C78.5819 289.452 79.3559 289.08 79.8719 288.336L81.4739 289.272C80.5859 290.58 79.2719 291.234 77.5319 291.234C76.0679 291.234 74.8859 290.79 73.9859 289.902C73.0859 289.002 72.6359 287.868 72.6359 286.5C72.6359 285.156 73.0799 284.034 73.9679 283.134C74.8559 282.222 75.9959 281.766 77.3879 281.766C78.7079 281.766 79.7879 282.228 80.6279 283.152C81.4799 284.076 81.9059 285.198 81.9059 286.518C81.9059 286.722 81.8819 286.992 81.8339 287.328H74.6699ZM74.6519 285.744H79.9439C79.8119 285.012 79.5059 284.46 79.0259 284.088C78.5579 283.716 78.0059 283.53 77.3699 283.53C76.6499 283.53 76.0499 283.728 75.5699 284.124C75.0899 284.52 74.7839 285.06 74.6519 285.744ZM91.1849 289.164H92.3909V293.412H90.4829V291H84.3089V293.412H82.4009V289.164H83.4989C84.0509 288.384 84.3269 287.298 84.3269 285.906V282H91.1849V289.164ZM85.6409 289.164H89.2769V283.782H86.2349V285.906C86.2349 287.19 86.0369 288.276 85.6409 289.164ZM96.0939 290.82C95.8299 291.084 95.5119 291.216 95.1399 291.216C94.7679 291.216 94.4499 291.084 94.1859 290.82C93.9219 290.556 93.7899 290.238 93.7899 289.866C93.7899 289.494 93.9159 289.176 94.1679 288.912C94.4319 288.648 94.7559 288.516 95.1399 288.516C95.5119 288.516 95.8299 288.648 96.0939 288.912C96.3579 289.176 96.4899 289.494 96.4899 289.866C96.4899 290.238 96.3579 290.556 96.0939 290.82Z" fill="black"/>
<rect x="16" y="86" width="149" height="50" rx="16" fill="white" fill-opacity="0.03"/>
<rect x="40.5" y="103" width="16" height="16" rx="6" fill="url(#paint3_linear_2464_4110)"/>
<path d="M71.36 116V109.35L66.74 116H65.48V106.2H67.09V112.85L71.71 106.2H72.97V116H71.36ZM78.1333 116.182C77.0786 116.182 76.1966 115.827 75.4873 115.118C74.7873 114.409 74.4373 113.536 74.4373 112.5C74.4373 111.455 74.7873 110.582 75.4873 109.882C76.1966 109.173 77.0786 108.818 78.1333 108.818C78.8146 108.818 79.4353 108.981 79.9953 109.308C80.5553 109.635 80.9753 110.073 81.2553 110.624L79.9533 111.38C79.7946 111.044 79.5519 110.783 79.2253 110.596C78.9079 110.4 78.5393 110.302 78.1193 110.302C77.5033 110.302 76.9853 110.512 76.5653 110.932C76.1546 111.352 75.9493 111.875 75.9493 112.5C75.9493 113.125 76.1546 113.648 76.5653 114.068C76.9853 114.488 77.5033 114.698 78.1193 114.698C78.5299 114.698 78.8986 114.6 79.2253 114.404C79.5613 114.208 79.8133 113.947 79.9813 113.62L81.2833 114.362C80.9846 114.922 80.5553 115.365 79.9953 115.692C79.4353 116.019 78.8146 116.182 78.1333 116.182ZM88.6472 109V116H87.1352V110.428H83.9292V116H82.4172V109H88.6472ZM94.3635 108.818C95.3249 108.818 96.1462 109.177 96.8275 109.896C97.5089 110.605 97.8495 111.473 97.8495 112.5C97.8495 113.536 97.5089 114.409 96.8275 115.118C96.1462 115.827 95.3249 116.182 94.3635 116.182C93.2995 116.182 92.4829 115.79 91.9135 115.006V118.8H90.4015V109H91.9135V110.008C92.4829 109.215 93.2995 108.818 94.3635 108.818ZM92.5435 114.11C92.9635 114.53 93.4909 114.74 94.1255 114.74C94.7602 114.74 95.2875 114.53 95.7075 114.11C96.1275 113.681 96.3375 113.144 96.3375 112.5C96.3375 111.856 96.1275 111.324 95.7075 110.904C95.2875 110.475 94.7602 110.26 94.1255 110.26C93.4909 110.26 92.9635 110.475 92.5435 110.904C92.1235 111.324 91.9135 111.856 91.9135 112.5C91.9135 113.144 92.1235 113.681 92.5435 114.11ZM104.764 109H106.276V116H104.764V114.992C104.195 115.785 103.378 116.182 102.314 116.182C101.353 116.182 100.531 115.827 99.8499 115.118C99.1686 114.399 98.8279 113.527 98.8279 112.5C98.8279 111.464 99.1686 110.591 99.8499 109.882C100.531 109.173 101.353 108.818 102.314 108.818C103.378 108.818 104.195 109.21 104.764 109.994V109ZM100.97 114.11C101.39 114.53 101.917 114.74 102.552 114.74C103.187 114.74 103.714 114.53 104.134 114.11C104.554 113.681 104.764 113.144 104.764 112.5C104.764 111.856 104.554 111.324 104.134 110.904C103.714 110.475 103.187 110.26 102.552 110.26C101.917 110.26 101.39 110.475 100.97 110.904C100.55 111.324 100.34 111.856 100.34 112.5C100.34 113.144 100.55 113.681 100.97 114.11ZM112.882 112.402C113.573 112.719 113.918 113.256 113.918 114.012C113.918 114.6 113.718 115.081 113.316 115.454C112.924 115.818 112.36 116 111.622 116H108.038V109H111.342C112.061 109 112.616 109.182 113.008 109.546C113.41 109.901 113.61 110.363 113.61 110.932C113.61 111.595 113.368 112.085 112.882 112.402ZM111.23 110.288H109.48V111.842H111.23C111.846 111.842 112.154 111.581 112.154 111.058C112.154 110.545 111.846 110.288 111.23 110.288ZM111.482 114.684C112.117 114.684 112.434 114.409 112.434 113.858C112.434 113.615 112.35 113.429 112.182 113.298C112.014 113.158 111.781 113.088 111.482 113.088H109.48V114.684H111.482ZM119.866 109H121.378V116H119.866V113.214H116.66V116H115.148V109H116.66V111.786H119.866V109ZM128.676 109H130.188V116H128.676V114.992C128.107 115.785 127.29 116.182 126.226 116.182C125.265 116.182 124.443 115.827 123.762 115.118C123.081 114.399 122.74 113.527 122.74 112.5C122.74 111.464 123.081 110.591 123.762 109.882C124.443 109.173 125.265 108.818 126.226 108.818C127.29 108.818 128.107 109.21 128.676 109.994V109ZM124.882 114.11C125.302 114.53 125.829 114.74 126.464 114.74C127.099 114.74 127.626 114.53 128.046 114.11C128.466 113.681 128.676 113.144 128.676 112.5C128.676 111.856 128.466 111.324 128.046 110.904C127.626 110.475 127.099 110.26 126.464 110.26C125.829 110.26 125.302 110.475 124.882 110.904C124.462 111.324 124.252 111.856 124.252 112.5C124.252 113.144 124.462 113.681 124.882 114.11Z" fill="white"/>
<rect x="173" y="86" width="149" height="50" rx="16" fill="white" fill-opacity="0.03"/>
<rect x="223" y="103" width="16" height="16" rx="6" fill="url(#paint4_linear_2464_4110)"/>
<path d="M254.35 106.2V107.74H251.592V116H249.982V107.74H247.21V106.2H254.35ZM263.17 114.712C262.19 115.692 260.991 116.182 259.572 116.182C258.153 116.182 256.949 115.692 255.96 114.712C254.98 113.723 254.49 112.519 254.49 111.1C254.49 109.681 254.98 108.482 255.96 107.502C256.949 106.513 258.153 106.018 259.572 106.018C260.991 106.018 262.19 106.513 263.17 107.502C264.159 108.482 264.654 109.681 264.654 111.1C264.654 112.519 264.159 113.723 263.17 114.712ZM257.094 113.62C257.766 114.283 258.592 114.614 259.572 114.614C260.552 114.614 261.373 114.283 262.036 113.62C262.708 112.948 263.044 112.108 263.044 111.1C263.044 110.092 262.708 109.257 262.036 108.594C261.373 107.922 260.552 107.586 259.572 107.586C258.592 107.586 257.766 107.922 257.094 108.594C256.431 109.257 256.1 110.092 256.1 111.1C256.1 112.108 256.431 112.948 257.094 113.62Z" fill="white"/>
<rect x="330" y="86" width="149" height="50" rx="16" fill="white" fill-opacity="0.03"/>
<rect x="356" y="103" width="16" height="16" rx="6" fill="url(#paint5_linear_2464_4110)"/>
<path d="M386.748 110.918C387.177 111.142 387.513 111.45 387.756 111.842C387.999 112.234 388.12 112.687 388.12 113.2C388.12 114.003 387.835 114.67 387.266 115.202C386.697 115.734 386.001 116 385.18 116H380.98V106.2H384.872C385.675 106.2 386.351 106.461 386.902 106.984C387.462 107.497 387.742 108.141 387.742 108.916C387.742 109.765 387.411 110.433 386.748 110.918ZM384.872 107.712H382.59V110.288H384.872C385.227 110.288 385.525 110.167 385.768 109.924C386.011 109.672 386.132 109.364 386.132 109C386.132 108.636 386.011 108.333 385.768 108.09C385.525 107.838 385.227 107.712 384.872 107.712ZM385.18 114.488C385.553 114.488 385.866 114.357 386.118 114.096C386.379 113.825 386.51 113.499 386.51 113.116C386.51 112.733 386.379 112.411 386.118 112.15C385.866 111.879 385.553 111.744 385.18 111.744H382.59V114.488H385.18ZM396.889 108.818C397.85 108.818 398.672 109.177 399.353 109.896C400.034 110.605 400.375 111.473 400.375 112.5C400.375 113.536 400.034 114.409 399.353 115.118C398.672 115.827 397.85 116.182 396.889 116.182C395.825 116.182 395.008 115.79 394.439 115.006V118.8H392.927V109H394.439V110.008C395.008 109.215 395.825 108.818 396.889 108.818ZM395.069 114.11C395.489 114.53 396.016 114.74 396.651 114.74C397.286 114.74 397.813 114.53 398.233 114.11C398.653 113.681 398.863 113.144 398.863 112.5C398.863 111.856 398.653 111.324 398.233 110.904C397.813 110.475 397.286 110.26 396.651 110.26C396.016 110.26 395.489 110.475 395.069 110.904C394.649 111.324 394.439 111.856 394.439 112.5C394.439 113.144 394.649 113.681 395.069 114.11ZM402.935 113.144C403.047 113.676 403.304 114.087 403.705 114.376C404.107 114.656 404.597 114.796 405.175 114.796C405.978 114.796 406.58 114.507 406.981 113.928L408.227 114.656C407.537 115.673 406.515 116.182 405.161 116.182C404.023 116.182 403.103 115.837 402.403 115.146C401.703 114.446 401.353 113.564 401.353 112.5C401.353 111.455 401.699 110.582 402.389 109.882C403.08 109.173 403.967 108.818 405.049 108.818C406.076 108.818 406.916 109.177 407.569 109.896C408.232 110.615 408.563 111.487 408.563 112.514C408.563 112.673 408.545 112.883 408.507 113.144H402.935ZM402.921 111.912H407.037C406.935 111.343 406.697 110.913 406.323 110.624C405.959 110.335 405.53 110.19 405.035 110.19C404.475 110.19 404.009 110.344 403.635 110.652C403.262 110.96 403.024 111.38 402.921 111.912ZM417.034 109V116H415.564V111.394L413.548 114.6H413.366L411.364 111.408V116H409.894V109H411.434L413.464 112.234L415.494 109H417.034ZM422.084 116.182C421.058 116.182 420.185 115.827 419.466 115.118C418.748 114.409 418.388 113.536 418.388 112.5C418.388 111.464 418.748 110.591 419.466 109.882C420.185 109.173 421.058 108.818 422.084 108.818C423.12 108.818 423.993 109.173 424.702 109.882C425.421 110.591 425.78 111.464 425.78 112.5C425.78 113.536 425.421 114.409 424.702 115.118C423.993 115.827 423.12 116.182 422.084 116.182ZM420.53 114.082C420.95 114.502 421.468 114.712 422.084 114.712C422.7 114.712 423.218 114.502 423.638 114.082C424.058 113.662 424.268 113.135 424.268 112.5C424.268 111.865 424.058 111.338 423.638 110.918C423.218 110.498 422.7 110.288 422.084 110.288C421.468 110.288 420.95 110.498 420.53 110.918C420.11 111.338 419.9 111.865 419.9 112.5C419.9 113.135 420.11 113.662 420.53 114.082ZM431.866 109H433.378V116H431.866V113.214H428.66V116H427.148V109H428.66V111.786H431.866V109ZM440.48 109V110.456H438.198V116H436.686V110.456H434.39V109H440.48ZM442.42 113.144C442.532 113.676 442.788 114.087 443.19 114.376C443.591 114.656 444.081 114.796 444.66 114.796C445.462 114.796 446.064 114.507 446.466 113.928L447.712 114.656C447.021 115.673 445.999 116.182 444.646 116.182C443.507 116.182 442.588 115.837 441.888 115.146C441.188 114.446 440.838 113.564 440.838 112.5C440.838 111.455 441.183 110.582 441.874 109.882C442.564 109.173 443.451 108.818 444.534 108.818C445.56 108.818 446.4 109.177 447.054 109.896C447.716 110.615 448.048 111.487 448.048 112.514C448.048 112.673 448.029 112.883 447.992 113.144H442.42ZM442.406 111.912H446.522C446.419 111.343 446.181 110.913 445.808 110.624C445.444 110.335 445.014 110.19 444.52 110.19C443.96 110.19 443.493 110.344 443.12 110.652C442.746 110.96 442.508 111.38 442.406 111.912Z" fill="white"/>
<path d="M195.304 301.6H198.504V324H194.824V305.536L190.312 306.816L189.416 303.68L195.304 301.6ZM201.898 324V321.12L209.706 313.152C211.605 311.253 212.554 309.611 212.554 308.224C212.554 307.136 212.224 306.293 211.562 305.696C210.922 305.077 210.101 304.768 209.098 304.768C207.221 304.768 205.834 305.696 204.938 307.552L201.834 305.728C202.538 304.235 203.53 303.104 204.81 302.336C206.09 301.568 207.509 301.184 209.066 301.184C211.029 301.184 212.714 301.803 214.122 303.04C215.53 304.277 216.234 305.963 216.234 308.096C216.234 310.379 214.965 312.811 212.426 315.392L207.37 320.448H216.65V324H201.898ZM235.391 316.544V319.968H232.831V324H229.119V319.968H218.111V316.544L225.823 301.6H229.823L222.111 316.544H229.119V310.72H232.831V316.544H235.391ZM244.738 310.048C246.871 310.048 248.674 310.688 250.146 311.968C251.618 313.227 252.354 314.976 252.354 317.216C252.354 319.456 251.596 321.216 250.082 322.496C248.567 323.776 246.711 324.416 244.514 324.416C242.743 324.416 241.175 324.011 239.81 323.2C238.444 322.368 237.474 321.173 236.898 319.616L240.066 317.792C240.663 319.819 242.146 320.832 244.514 320.832C245.772 320.832 246.775 320.512 247.522 319.872C248.29 319.211 248.674 318.325 248.674 317.216C248.674 316.107 248.3 315.232 247.554 314.592C246.807 313.952 245.815 313.632 244.578 313.632H238.049L238.914 301.6H251.394V305.056H242.306L241.922 310.048H244.738ZM266.111 317.472C266.367 318.688 266.954 319.627 267.871 320.288C268.788 320.928 269.908 321.248 271.231 321.248C273.066 321.248 274.442 320.587 275.359 319.264L278.207 320.928C276.628 323.253 274.292 324.416 271.199 324.416C268.596 324.416 266.495 323.627 264.895 322.048C263.295 320.448 262.495 318.432 262.495 316C262.495 313.611 263.284 311.616 264.863 310.016C266.442 308.395 268.468 307.584 270.943 307.584C273.29 307.584 275.21 308.405 276.703 310.048C278.218 311.691 278.975 313.685 278.975 316.032C278.975 316.395 278.932 316.875 278.847 317.472H266.111ZM266.079 314.656H275.487C275.252 313.355 274.708 312.373 273.855 311.712C273.023 311.051 272.042 310.72 270.911 310.72C269.631 310.72 268.564 311.072 267.711 311.776C266.858 312.48 266.314 313.44 266.079 314.656ZM295.471 320.736H297.615V328.288H294.223V324H283.247V328.288H279.855V320.736H281.807C282.788 319.349 283.279 317.419 283.279 314.944V308H295.471V320.736ZM285.615 320.736H292.079V311.168H286.671V314.944C286.671 317.227 286.319 319.157 285.615 320.736ZM304.198 323.68C303.729 324.149 303.164 324.384 302.502 324.384C301.841 324.384 301.276 324.149 300.806 323.68C300.337 323.211 300.102 322.645 300.102 321.984C300.102 321.323 300.326 320.757 300.774 320.288C301.244 319.819 301.82 319.584 302.502 319.584C303.164 319.584 303.729 319.819 304.198 320.288C304.668 320.757 304.902 321.323 304.902 321.984C304.902 322.645 304.668 323.211 304.198 323.68Z" fill="white"/>
<rect x="16.5" y="16.5" width="55" height="55" rx="27.5" stroke="white" stroke-opacity="0.06"/>
<path d="M44 36C39.5817 36 36 39.5817 36 44C36 48.4183 39.5817 52 44 52C48.4183 52 52 48.4183 52 44C52 39.5817 48.4183 36 44 36ZM44 36V44M44 44L37.0703 40M44 44L36.5815 47" stroke="white" stroke-linecap="round"/>
<path d="M94.71 50.02H96.06V54.412H93.99V52H86.34V54.412H84.27V50.02H85.44C86.172 49.06 86.538 47.614 86.538 45.682V39.4H94.71V50.02ZM87.708 50.02H92.64V41.344H88.608V45.718C88.608 47.59 88.308 49.024 87.708 50.02ZM104.254 43H105.748V52H103.84V46.276L99.2315 52H97.7375V43H99.6455V48.706L104.254 43ZM115.131 43H117.075V52H115.131V50.704C114.399 51.724 113.349 52.234 111.981 52.234C110.745 52.234 109.689 51.778 108.813 50.866C107.937 49.942 107.499 48.82 107.499 47.5C107.499 46.168 107.937 45.046 108.813 44.134C109.689 43.222 110.745 42.766 111.981 42.766C113.349 42.766 114.399 43.27 115.131 44.278V43ZM110.253 49.57C110.793 50.11 111.471 50.38 112.287 50.38C113.103 50.38 113.781 50.11 114.321 49.57C114.861 49.018 115.131 48.328 115.131 47.5C115.131 46.672 114.861 45.988 114.321 45.448C113.781 44.896 113.103 44.62 112.287 44.62C111.471 44.62 110.793 44.896 110.253 45.448C109.713 45.988 109.443 46.672 109.443 47.5C109.443 48.328 109.713 49.018 110.253 49.57ZM125.371 43V44.872H121.285V52H119.341V43H125.371ZM131.783 42.766C133.019 42.766 134.075 43.228 134.951 44.152C135.827 45.064 136.265 46.18 136.265 47.5C136.265 48.832 135.827 49.954 134.951 50.866C134.075 51.778 133.019 52.234 131.783 52.234C130.415 52.234 129.365 51.73 128.633 50.722V55.6H126.689V43H128.633V44.296C129.365 43.276 130.415 42.766 131.783 42.766ZM129.443 49.57C129.983 50.11 130.661 50.38 131.477 50.38C132.293 50.38 132.971 50.11 133.511 49.57C134.051 49.018 134.321 48.328 134.321 47.5C134.321 46.672 134.051 45.988 133.511 45.448C132.971 44.896 132.293 44.62 131.477 44.62C130.661 44.62 129.983 44.896 129.443 45.448C128.903 45.988 128.633 46.672 128.633 47.5C128.633 48.328 128.903 49.018 129.443 49.57ZM145.155 43H147.099V52H145.155V50.704C144.423 51.724 143.373 52.234 142.005 52.234C140.769 52.234 139.713 51.778 138.837 50.866C137.961 49.942 137.523 48.82 137.523 47.5C137.523 46.168 137.961 45.046 138.837 44.134C139.713 43.222 140.769 42.766 142.005 42.766C143.373 42.766 144.423 43.27 145.155 44.278V43ZM140.277 49.57C140.817 50.11 141.495 50.38 142.311 50.38C143.127 50.38 143.805 50.11 144.345 49.57C144.885 49.018 145.155 48.328 145.155 47.5C145.155 46.672 144.885 45.988 144.345 45.448C143.805 44.896 143.127 44.62 142.311 44.62C141.495 44.62 140.817 44.896 140.277 45.448C139.737 45.988 139.467 46.672 139.467 47.5C139.467 48.328 139.737 49.018 140.277 49.57ZM158.544 43V52H156.654V46.078L154.062 50.2H153.828L151.254 46.096V52H149.364V43H151.344L153.954 47.158L156.564 43H158.544ZM169.97 43V52H168.08V46.078L165.488 50.2H165.254L162.68 46.096V52H160.79V43H162.77L165.38 47.158L167.99 43H169.97ZM179.344 43H181.288V52H179.344V50.704C178.612 51.724 177.562 52.234 176.194 52.234C174.958 52.234 173.902 51.778 173.026 50.866C172.15 49.942 171.712 48.82 171.712 47.5C171.712 46.168 172.15 45.046 173.026 44.134C173.902 43.222 174.958 42.766 176.194 42.766C177.562 42.766 178.612 43.27 179.344 44.278V43ZM174.466 49.57C175.006 50.11 175.684 50.38 176.5 50.38C177.316 50.38 177.994 50.11 178.534 49.57C179.074 49.018 179.344 48.328 179.344 47.5C179.344 46.672 179.074 45.988 178.534 45.448C177.994 44.896 177.316 44.62 176.5 44.62C175.684 44.62 175.006 44.896 174.466 45.448C173.926 45.988 173.656 46.672 173.656 47.5C173.656 48.328 173.926 49.018 174.466 49.57Z" fill="white"/>
<defs>
<linearGradient id="paint0_linear_2464_4110" x1="360.5" y1="315" x2="342.657" y2="453.025" gradientUnits="userSpaceOnUse">
<stop stop-color="#D04343"/>
<stop offset="1" stop-color="#861D1D"/>
</linearGradient>
<linearGradient id="paint1_linear_2464_4110" x1="262.5" y1="201.5" x2="360" y2="310.5" gradientUnits="userSpaceOnUse">
<stop stop-color="#E86C25"/>
<stop offset="1" stop-color="#6C3210"/>
</linearGradient>
<linearGradient id="paint2_linear_2464_4110" x1="243" y1="198" x2="185" y2="396.5" gradientUnits="userSpaceOnUse">
<stop stop-color="#B9FF66"/>
<stop offset="1" stop-color="#6F993D"/>
</linearGradient>
<linearGradient id="paint3_linear_2464_4110" x1="40.5" y1="103" x2="56.5" y2="119" gradientUnits="userSpaceOnUse">
<stop offset="0.000877554" stop-color="#B9FF66"/>
<stop offset="1" stop-color="#6F993D"/>
</linearGradient>
<linearGradient id="paint4_linear_2464_4110" x1="223" y1="103" x2="239.48" y2="107.775" gradientUnits="userSpaceOnUse">
<stop stop-color="#E86C25"/>
<stop offset="1" stop-color="#6C3210"/>
</linearGradient>
<linearGradient id="paint5_linear_2464_4110" x1="356" y1="103" x2="374.605" y2="107.058" gradientUnits="userSpaceOnUse">
<stop stop-color="#D04343"/>
<stop offset="1" stop-color="#861D1D"/>
</linearGradient>
</defs>
</svg>
