<svg width="20" height="20" viewBox="0 0 20 20" fill="none" xmlns="http://www.w3.org/2000/svg">
<g opacity="0.5">
<path d="M17.6464 18.3536C17.8417 18.5488 18.1583 18.5488 18.3536 18.3536C18.5488 18.1583 18.5488 17.8417 18.3536 17.6464L17.6464 18.3536ZM14.6765 8.58824C14.6765 11.9507 11.9507 14.6765 8.58824 14.6765V15.6765C12.503 15.6765 15.6765 12.503 15.6765 8.58824H14.6765ZM8.58824 14.6765C5.2258 14.6765 2.5 11.9507 2.5 8.58824H1.5C1.5 12.503 4.67351 15.6765 8.58824 15.6765V14.6765ZM2.5 8.58824C2.5 5.2258 5.2258 2.5 8.58824 2.5V1.5C4.67351 1.5 1.5 4.67351 1.5 8.58824H2.5ZM8.58824 2.5C11.9507 2.5 14.6765 5.2258 14.6765 8.58824H15.6765C15.6765 4.67351 12.503 1.5 8.58824 1.5V2.5ZM12.9406 13.6477L17.6464 18.3536L18.3536 17.6464L13.6477 12.9406L12.9406 13.6477Z" fill="#FBFBFC"/>
</g>
</svg>
