<svg width="30" height="30" viewBox="0 0 30 30" fill="none" xmlns="http://www.w3.org/2000/svg">
<path d="M0 15C0 6.71573 6.71573 0 15 0C23.2843 0 30 6.71573 30 15C30 23.2843 23.2843 30 15 30C6.71573 30 0 23.2843 0 15Z" fill="#FF807D"/>
<path d="M16.5531 7.40667C16.5531 9.99303 17.8347 11.2931 18.9387 12.5291C19.9947 13.711 21 14.8367 21 16.981C21 20.4917 18.4265 23 15.1269 23C11.8265 23 9 20.5041 9 16.981C9 15.4933 9.65966 14.0546 10.7205 13.4067C10.9296 13.2791 11.1813 13.4118 11.2711 13.6504C11.9575 15.4736 12.8037 15.4415 13.2425 14.9746C13.5086 14.6923 13.5648 14.1604 13.2398 13.4702C11.5906 9.95947 14.5173 7.43001 16.1198 7.0105C16.3502 6.95068 16.5415 7.15496 16.5531 7.40667ZM15.1269 21.9056C17.9102 21.9056 19.9714 19.8336 19.9714 16.981C19.9714 15.2759 19.2219 14.4354 18.1351 13.2178L18.1207 13.201C17.1333 12.0942 15.9682 10.7562 15.6185 8.41714C15.1008 8.74099 14.654 9.17878 14.3081 9.7012C13.7685 10.5358 13.5216 11.6222 14.16 12.9807C14.5735 13.8598 14.6928 14.9797 13.9701 15.7487C13.5195 16.228 12.7618 16.5512 11.9431 16.1762C11.4274 15.9398 11.0153 15.4795 10.6827 14.8703C10.2939 15.3854 10.0286 16.1397 10.0286 16.981C10.0286 19.7877 12.2832 21.9056 15.1269 21.9056Z" fill="#1C1C1C"/>
</svg>
