<svg width="16" height="16" viewBox="0 0 16 16" fill="none" xmlns="http://www.w3.org/2000/svg">
<path d="M8 7.22234L5.49826 9.49112C5.40334 9.5772 5.24944 9.5772 5.15452 9.49112L4.11111 8.54487M8.77778 11.889H11.8889M4.88889 4.88901V1.00012M11.1111 4.88901V1.00012M3.48889 2.55568H12.5111C13.3823 2.55568 13.8179 2.55568 14.1507 2.72522C14.4433 2.87436 14.6813 3.11233 14.8305 3.40503C15 3.73778 15 4.17337 15 5.04457V12.5112C15 13.3824 15 13.818 14.8305 14.1508C14.6813 14.4435 14.4433 14.6814 14.1507 14.8306C13.8179 15.0001 13.3823 15.0001 12.5111 15.0001H3.48889C2.6177 15.0001 2.1821 15.0001 1.84935 14.8306C1.55665 14.6814 1.31868 14.4435 1.16955 14.1508C1 13.818 1 13.3824 1 12.5112V5.04457C1 4.17337 1 3.73778 1.16955 3.40503C1.31868 3.11233 1.55665 2.87436 1.84935 2.72522C2.1821 2.55568 2.6177 2.55568 3.48889 2.55568Z" stroke="#FBFBFC" stroke-opacity="0.8" stroke-linecap="round"/>
</svg>
