<svg width="18" height="16" viewBox="0 0 18 16" fill="none" xmlns="http://www.w3.org/2000/svg">
<path d="M3.49399 9.36961C3.49399 9.09347 3.27014 8.86961 2.99399 8.86961C2.71785 8.86961 2.49399 9.09347 2.49399 9.36961H3.49399ZM3.824 12.5739L3.61179 13.0267H3.61179L3.824 12.5739ZM8.24681 14.6471L8.45902 14.1943L8.24681 14.6471ZM9.71409 14.5817L9.49317 14.1332L9.47694 14.1412L9.46132 14.1503L9.71409 14.5817ZM14.3003 12.3228L14.5212 12.7713L14.5375 12.7633L14.5531 12.7542L14.3003 12.3228ZM15.506 9.01771C15.506 8.74156 15.2821 8.51771 15.006 8.51771C14.7299 8.51771 14.506 8.74156 14.506 9.01771H15.506ZM9 8.6658L9.34197 8.30103L9 7.98044L8.65803 8.30103L9 8.6658ZM9.16787 8.58711L9.38009 9.03984L9.16787 8.58711ZM14.8717 5.9135L14.6595 5.46077L14.8717 5.9135ZM14.8717 5.7876L14.6595 6.24033L14.8717 5.7876ZM9.16787 3.11398L9.38009 2.66125V2.66125L9.16787 3.11398ZM8.83213 3.11398L8.61991 2.66125V2.66125L8.83213 3.11398ZM3.12829 5.7876L3.3405 6.24033H3.34051L3.12829 5.7876ZM3.12829 5.9135L3.34051 5.46077H3.34051L3.12829 5.9135ZM8.83213 8.58711L9.04434 8.13438L8.83213 8.58711ZM11.0556 10.5929L10.7136 10.9576L11.0556 10.5929ZM11.4977 10.6545L11.7213 11.1018L11.4977 10.6545ZM16.4758 8.16552L16.2522 7.7183L16.4758 8.16552ZM16.5875 7.62973L16.2138 7.96191L16.2138 7.96191L16.5875 7.62973ZM15.006 5.85055L14.664 5.48577L14.3088 5.8188L14.6323 6.18273L15.006 5.85055ZM6.50234 10.6545L6.27874 11.1018H6.27874L6.50234 10.6545ZM1.52419 8.16552L1.74779 7.7183H1.74779L1.52419 8.16552ZM1.41247 7.62973L1.78617 7.96191L1.78617 7.96191L1.41247 7.62973ZM2.99399 5.85055L3.36769 6.18273L3.6912 5.8188L3.33596 5.48577L2.99399 5.85055ZM11.0609 1.1032L10.719 0.738431V0.738431L11.0609 1.1032ZM11.4942 1.03728L11.7065 0.584552L11.4942 1.03728ZM16.7924 3.52076L16.5802 3.97349L16.7924 3.52076ZM16.89 4.08435L16.548 3.71957L16.89 4.08435ZM6.93906 1.1032L7.28103 0.738431V0.738431L6.93906 1.1032ZM6.50576 1.03728L6.29354 0.584552L6.50576 1.03728ZM1.20756 3.52076L0.995351 3.06803L1.20756 3.52076ZM1.11001 4.08435L1.45197 3.71957L1.11001 4.08435ZM9.34197 2.71471L9 2.34993L9.34197 2.71471ZM2.49399 9.36961V11.3149H3.49399V9.36961H2.49399ZM3.61179 13.0267L8.0346 15.0998L8.45902 14.1943L4.03622 12.1212L3.61179 13.0267ZM9.93502 15.0303L14.5212 12.7713L14.0794 11.8742L9.49317 14.1332L9.93502 15.0303ZM15.506 11.1291V9.01771H14.506V11.1291H15.506ZM14.5531 12.7542C15.1361 12.4126 15.506 11.8022 15.506 11.1291H14.506C14.506 11.4267 14.3425 11.7186 14.0475 11.8914L14.5531 12.7542ZM8.0346 15.0998C8.65059 15.3885 9.3804 15.3567 9.96686 15.0131L9.46132 14.1503C9.16065 14.3265 8.77872 14.3442 8.45902 14.1943L8.0346 15.0998ZM2.49399 11.3149C2.49399 12.055 2.93953 12.7115 3.61179 13.0267L4.03622 12.1212C3.69111 11.9594 3.49399 11.6412 3.49399 11.3149H2.49399ZM9.5 15.0001V8.6658H8.5V15.0001H9.5ZM9.38009 9.03984L15.0839 6.36623L14.6595 5.46077L8.95566 8.13438L9.38009 9.03984ZM15.0839 5.33486L9.38009 2.66125L8.95566 3.56671L14.6595 6.24033L15.0839 5.33486ZM8.61991 2.66125L2.91608 5.33486L3.34051 6.24033L9.04434 3.56671L8.61991 2.66125ZM2.91608 6.36623L8.61991 9.03984L9.04434 8.13438L3.34051 5.46077L2.91608 6.36623ZM2.91608 5.33486C2.47702 5.54067 2.47703 6.16043 2.91608 6.36623L3.34051 5.46077C3.66888 5.61469 3.66889 6.0864 3.3405 6.24033L2.91608 5.33486ZM9.38009 2.66125C9.13995 2.54869 8.86005 2.54869 8.61991 2.66125L9.04434 3.56671C9.01556 3.5802 8.98444 3.5802 8.95566 3.56671L9.38009 2.66125ZM15.0839 6.36623C15.523 6.16043 15.523 5.54066 15.0839 5.33486L14.6595 6.24033C14.3311 6.0864 14.3311 5.61469 14.6595 5.46077L15.0839 6.36623ZM8.95566 8.13438C8.98444 8.12089 9.01556 8.12089 9.04434 8.13438L8.61991 9.03984C8.86005 9.1524 9.13995 9.1524 9.38009 9.03984L8.95566 8.13438ZM8.65803 9.03057L10.7136 10.9576L11.3976 10.2281L9.34197 8.30103L8.65803 9.03057ZM11.7213 11.1018L16.6994 8.61273L16.2522 7.7183L11.2741 10.2073L11.7213 11.1018ZM16.9612 7.29754L15.3797 5.51836L14.6323 6.18273L16.2138 7.96191L16.9612 7.29754ZM16.6994 8.61273C17.1886 8.36815 17.3433 7.72734 16.9612 7.29754L16.2138 7.96191C16.1824 7.92654 16.1673 7.87226 16.1781 7.82046C16.1887 7.76963 16.221 7.73389 16.2522 7.7183L16.6994 8.61273ZM10.7136 10.9576C10.9868 11.2137 11.3928 11.266 11.7213 11.1018L11.2741 10.2073C11.2951 10.1968 11.3163 10.1943 11.3348 10.1969C11.3534 10.1995 11.3763 10.2082 11.3976 10.2281L10.7136 10.9576ZM8.65803 8.30103L6.60245 10.2281L7.28638 10.9576L9.34197 9.03057L8.65803 8.30103ZM6.72594 10.2073L1.74779 7.7183L1.30059 8.61273L6.27874 11.1018L6.72594 10.2073ZM1.78617 7.96191L3.36769 6.18273L2.62029 5.51836L1.03876 7.29754L1.78617 7.96191ZM1.74779 7.7183C1.77897 7.73389 1.81131 7.76963 1.82191 7.82046C1.83271 7.87226 1.81761 7.92654 1.78617 7.96191L1.03876 7.29754C0.656712 7.72734 0.811404 8.36815 1.30059 8.61273L1.74779 7.7183ZM6.60245 10.2281C6.62368 10.2082 6.64664 10.1995 6.66515 10.1969C6.68367 10.1943 6.70486 10.1968 6.72594 10.2073L6.27874 11.1018C6.60723 11.266 7.01324 11.2137 7.28638 10.9576L6.60245 10.2281ZM9.68393 3.07948L11.4029 1.46798L10.719 0.738431L9 2.34993L9.68393 3.07948ZM11.282 1.49001L16.5802 3.97349L17.0046 3.06803L11.7065 0.584552L11.282 1.49001ZM16.548 3.71957L14.664 5.48577L15.348 6.21532L17.232 4.44912L16.548 3.71957ZM16.5802 3.97349C16.5469 3.95787 16.5119 3.91911 16.5024 3.86442C16.4928 3.80869 16.513 3.7524 16.548 3.71957L17.232 4.44912C17.6831 4.0262 17.5388 3.31838 17.0046 3.06803L16.5802 3.97349ZM11.4029 1.46798C11.3821 1.48746 11.3597 1.49621 11.3414 1.49899C11.3232 1.50176 11.3026 1.49965 11.282 1.49001L11.7065 0.584552C11.3813 0.432155 10.9863 0.48782 10.719 0.738431L11.4029 1.46798ZM9 2.34993L7.28103 0.738431L6.59709 1.46798L8.31607 3.07948L9 2.34993ZM6.29354 0.584552L0.995351 3.06803L1.41978 3.97349L6.71797 1.49001L6.29354 0.584552ZM0.76804 4.44912L2.65203 6.21532L3.33596 5.48577L1.45197 3.71957L0.76804 4.44912ZM0.995351 3.06803C0.461249 3.31838 0.316916 4.0262 0.76804 4.44912L1.45197 3.71957C1.48698 3.7524 1.50723 3.80869 1.49758 3.86442C1.48812 3.91911 1.4531 3.95787 1.41978 3.97349L0.995351 3.06803ZM7.28103 0.738431C7.0137 0.48782 6.61866 0.432155 6.29354 0.584552L6.71797 1.49001C6.69742 1.49965 6.6768 1.50176 6.65856 1.49899C6.64031 1.49621 6.61788 1.48746 6.59709 1.46798L7.28103 0.738431ZM9 2.34993H9L8.31607 3.07948C8.70072 3.44009 9.29928 3.44009 9.68393 3.07948L9 2.34993Z" fill="#FBFBFC" fill-opacity="0.8"/>
</svg>
