<svg width="16" height="12" viewBox="0 0 16 12" fill="none" xmlns="http://www.w3.org/2000/svg">
<path d="M8.35238 10.5762C8.51503 10.7559 8.71559 10.8888 8.93622 10.9628C9.15686 11.0369 9.39073 11.05 9.61706 11.0008C9.84339 10.9516 10.0552 10.8418 10.2335 10.6811C10.4119 10.5203 10.5514 10.3137 10.6395 10.0794C10.7277 9.84518 10.7618 9.59065 10.7388 9.33844C10.7159 9.08623 10.6366 8.84416 10.5079 8.63375C10.3793 8.42334 10.2038 8.26085 10 8.1421C9.79618 8.02336 9.63258 7.99894 9.40188 8H1M11.9366 1.60682C12.1402 1.38366 12.3908 1.21907 12.6661 1.1276C12.9414 1.03614 13.233 1.02062 13.515 1.08243C13.7971 1.14423 14.061 1.28145 14.2833 1.48195C14.5056 1.68245 14.6795 1.94005 14.7897 2.23197C14.8998 2.52389 14.9428 2.84113 14.9148 3.15563C14.8868 3.47013 14.7886 3.77221 14.6291 4.03513C14.4695 4.29806 14.2535 4.51374 14 4.6631C13.7465 4.81245 13.2876 4.99942 13 4.99998H1" stroke="#F8F8F8" stroke-opacity="0.6" stroke-linecap="round" stroke-linejoin="round"/>
</svg>
