<svg width="16" height="16" viewBox="0 0 16 16" fill="none" xmlns="http://www.w3.org/2000/svg">
<path d="M14.6464 15.3537C14.8417 15.5489 15.1583 15.5489 15.3536 15.3537C15.5488 15.1584 15.5488 14.8418 15.3536 14.6466L14.6464 15.3537ZM3.71758 8.69455C3.61502 8.95095 3.73973 9.24193 3.99612 9.34449C4.25251 9.44704 4.5435 9.32234 4.64606 9.06594L3.71758 8.69455ZM5.30035 6.08391L5.76459 6.26961L5.30035 6.08391ZM5.78669 5.94754L6.08669 5.54754L5.78669 5.94754ZM7.66786 7.35842L7.96786 6.95842L7.66786 7.35842ZM8.15419 7.22204L7.68995 7.03634V7.03635L8.15419 7.22204ZM9.73697 4.6114C9.83952 4.35501 9.71481 4.06402 9.45842 3.96147C9.20203 3.85891 8.91105 3.98362 8.80849 4.24001L9.73697 4.6114ZM12.0294 6.76483C12.0294 9.67244 9.67232 12.0295 6.76471 12.0295V13.0295C10.2246 13.0295 13.0294 10.2247 13.0294 6.76483H12.0294ZM6.76471 12.0295C3.85709 12.0295 1.5 9.67244 1.5 6.76483H0.5C0.5 10.2247 3.3048 13.0295 6.76471 13.0295V12.0295ZM1.5 6.76483C1.5 3.85721 3.85709 1.50012 6.76471 1.50012V0.500122C3.3048 0.500122 0.5 3.30493 0.5 6.76483H1.5ZM6.76471 1.50012C9.67232 1.50012 12.0294 3.85721 12.0294 6.76483H13.0294C13.0294 3.30493 10.2246 0.500122 6.76471 0.500122V1.50012ZM10.5288 11.236L14.6464 15.3537L15.3536 14.6466L11.2359 10.5289L10.5288 11.236ZM4.64606 9.06594L5.76459 6.26961L4.83611 5.89822L3.71758 8.69455L4.64606 9.06594ZM5.48669 6.34754L7.36786 7.75842L7.96786 6.95842L6.08669 5.54754L5.48669 6.34754ZM8.61843 7.40774L9.73697 4.6114L8.80849 4.24001L7.68995 7.03634L8.61843 7.40774ZM7.36786 7.75842C7.79857 8.08145 8.41848 7.90761 8.61843 7.40774L7.68995 7.03635C7.73439 6.92526 7.87215 6.88663 7.96786 6.95842L7.36786 7.75842ZM5.76459 6.26961C5.72016 6.38069 5.5824 6.41932 5.48669 6.34754L6.08669 5.54754C5.65598 5.22451 5.03606 5.39834 4.83611 5.89822L5.76459 6.26961Z" fill="#FBFBFC" fill-opacity="0.8"/>
</svg>
