<svg width="56" height="56" viewBox="0 0 56 56" fill="none" xmlns="http://www.w3.org/2000/svg">
<rect x="0.5" y="0.5" width="55" height="55" rx="27.5" stroke="#FBFBFC" stroke-opacity="0.06"/>
<rect x="18.5" y="18.5" width="19" height="19" stroke="#1C1C1C" stroke-opacity="0.1"/>
<path d="M21.7368 25.1429H30.5789M30.5789 25.1429C30.5789 26.3263 31.5686 27.2857 32.7895 27.2857C34.0103 27.2857 35 26.3263 35 25.1429C35 23.9594 34.0103 23 32.7895 23C31.5686 23 30.5789 23.9594 30.5789 25.1429ZM25.4211 30.8571H33.5263M25.4211 30.8571C25.4211 32.0406 24.4314 33 23.2105 33C21.9897 33 21 32.0406 21 30.8571C21 29.6737 21.9897 28.7143 23.2105 28.7143C24.4314 28.7143 25.4211 29.6737 25.4211 30.8571Z" stroke="#FBFBFC" stroke-linecap="round"/>
</svg>
