<svg width="16" height="16" viewBox="0 0 16 16" fill="none" xmlns="http://www.w3.org/2000/svg">
<path d="M6.81612 3.99618L6.00433 3.1853C5.18745 2.36933 5.47819 1.00012 6.63343 1.00012C8.18906 1.00012 9.59742 1.62996 10.6169 2.64828C11.6363 3.66659 12.2669 5.07338 12.2669 6.62728C12.2669 6.91294 12.2456 7.19363 12.2044 7.46786C12.1035 8.14089 12.2431 8.85501 12.7309 9.3301L14.4767 11.0303C15.1683 11.7039 15.1753 12.8121 14.4923 13.4943L13.4925 14.493C12.8156 15.1692 11.7181 15.1692 11.0412 14.493L9.25684 12.7106C8.7866 12.2409 8.09099 12.1049 7.43258 12.1983C7.17153 12.2353 6.90472 12.2544 6.63343 12.2544C5.0778 12.2544 3.66945 11.6246 2.64999 10.6063C1.63054 9.58797 1 8.18118 1 6.62728C1 5.47333 2.37073 5.18291 3.18761 5.99888L3.9994 6.80976C4.67632 7.48593 5.77383 7.48593 6.45075 6.80976L6.81612 6.4448C7.49304 5.76863 7.49304 4.67235 6.81612 3.99618Z" stroke="#FBFBFC" stroke-opacity="0.8" stroke-linecap="round"/>
</svg>
