<svg width="56" height="56" viewBox="0 0 56 56" fill="none" xmlns="http://www.w3.org/2000/svg">
<rect x="0.5" y="0.5" width="55" height="55" rx="27.5" stroke="#FBFBFC" stroke-opacity="0.06"/>
<path d="M21.9855 35.6037L22.2579 35.0691H22.2579L21.9855 35.6037ZM20.3963 34.0145L20.9309 33.7421L20.9309 33.7421L20.3963 34.0145ZM35.6037 34.0145L35.0691 33.7421V33.7421L35.6037 34.0145ZM34.0145 35.6037L33.7421 35.0691H33.7421L34.0145 35.6037ZM34.0145 20.3963L33.7421 20.9309L33.7421 20.9309L34.0145 20.3963ZM35.6037 21.9855L35.0691 22.2579V22.2579L35.6037 21.9855ZM21.9855 20.3963L22.2579 20.9309L21.9855 20.3963ZM20.3963 21.9855L20.9309 22.2579L20.3963 21.9855ZM24.0606 25.3939C23.8263 25.1596 23.4464 25.1596 23.2121 25.3939C22.9778 25.6282 22.9778 26.0081 23.2121 26.2424L24.0606 25.3939ZM25.5611 27.7429L25.9853 27.3186L25.5611 27.7429ZM25.5611 28.2571L25.9853 28.6814L25.5611 28.2571ZM23.2121 29.7576C22.9778 29.9919 22.9778 30.3718 23.2121 30.6061C23.4464 30.8404 23.8263 30.8404 24.0606 30.6061L23.2121 29.7576ZM28 24.4909C27.6686 24.4909 27.4 24.7595 27.4 25.0909C27.4 25.4223 27.6686 25.6909 28 25.6909V24.4909ZM32.3636 25.6909C32.695 25.6909 32.9636 25.4223 32.9636 25.0909C32.9636 24.7595 32.695 24.4909 32.3636 24.4909V25.6909ZM29.4545 27.4C29.1232 27.4 28.8545 27.6686 28.8545 28C28.8545 28.3314 29.1232 28.6 29.4545 28.6V27.4ZM32.3636 28.6C32.695 28.6 32.9636 28.3314 32.9636 28C32.9636 27.6686 32.695 27.4 32.3636 27.4V28.6ZM28 30.3091C27.6686 30.3091 27.4 30.5777 27.4 30.9091C27.4 31.2405 27.6686 31.5091 28 31.5091V30.3091ZM32.3636 31.5091C32.695 31.5091 32.9636 31.2405 32.9636 30.9091C32.9636 30.5777 32.695 30.3091 32.3636 30.3091V31.5091ZM25.8182 20.6H30.1818V19.4H25.8182V20.6ZM35.4 25.8182V30.1818H36.6V25.8182H35.4ZM30.1818 35.4H25.8182V36.6H30.1818V35.4ZM20.6 30.1818V25.8182H19.4V30.1818H20.6ZM25.8182 35.4C24.79 35.4 24.055 35.3995 23.4787 35.3525C22.9094 35.3059 22.5481 35.2169 22.2579 35.0691L21.7131 36.1383C22.2007 36.3867 22.7375 36.4959 23.381 36.5485C24.0174 36.6005 24.8098 36.6 25.8182 36.6V35.4ZM19.4 30.1818C19.4 31.1902 19.3995 31.9826 19.4515 32.619C19.5041 33.2625 19.6133 33.7993 19.8617 34.2869L20.9309 33.7421C20.7831 33.4519 20.6941 33.0906 20.6475 32.5213C20.6005 31.945 20.6 31.21 20.6 30.1818H19.4ZM22.2579 35.0691C21.6866 34.778 21.2221 34.3134 20.9309 33.7421L19.8617 34.2869C20.2679 35.084 20.916 35.7321 21.7131 36.1383L22.2579 35.0691ZM35.4 30.1818C35.4 31.21 35.3995 31.945 35.3525 32.5213C35.3059 33.0906 35.2169 33.4519 35.0691 33.7421L36.1383 34.2869C36.3867 33.7993 36.4959 33.2625 36.5485 32.619C36.6005 31.9826 36.6 31.1902 36.6 30.1818H35.4ZM30.1818 36.6C31.1902 36.6 31.9826 36.6005 32.619 36.5485C33.2625 36.4959 33.7993 36.3867 34.2869 36.1383L33.7421 35.0691C33.4519 35.2169 33.0906 35.3059 32.5213 35.3525C31.945 35.3995 31.21 35.4 30.1818 35.4V36.6ZM35.0691 33.7421C34.778 34.3134 34.3134 34.778 33.7421 35.0691L34.2869 36.1383C35.084 35.7321 35.7321 35.084 36.1383 34.2869L35.0691 33.7421ZM30.1818 20.6C31.21 20.6 31.945 20.6005 32.5213 20.6475C33.0906 20.6941 33.4519 20.7831 33.7421 20.9309L34.2869 19.8617C33.7993 19.6133 33.2625 19.5041 32.619 19.4515C31.9826 19.3995 31.1902 19.4 30.1818 19.4V20.6ZM36.6 25.8182C36.6 24.8098 36.6005 24.0174 36.5485 23.381C36.4959 22.7375 36.3867 22.2007 36.1383 21.7131L35.0691 22.2579C35.2169 22.5481 35.3059 22.9094 35.3525 23.4787C35.3995 24.055 35.4 24.79 35.4 25.8182H36.6ZM33.7421 20.9309C34.3134 21.2221 34.778 21.6866 35.0691 22.2579L36.1383 21.7131C35.7321 20.916 35.084 20.2679 34.2869 19.8617L33.7421 20.9309ZM25.8182 19.4C24.8098 19.4 24.0174 19.3995 23.381 19.4515C22.7375 19.5041 22.2007 19.6133 21.7131 19.8617L22.2579 20.9309C22.5481 20.7831 22.9094 20.6941 23.4787 20.6475C24.055 20.6005 24.79 20.6 25.8182 20.6V19.4ZM20.6 25.8182C20.6 24.79 20.6005 24.055 20.6475 23.4787C20.6941 22.9094 20.7831 22.5481 20.9309 22.2579L19.8617 21.7131C19.6133 22.2007 19.5041 22.7375 19.4515 23.381C19.3995 24.0174 19.4 24.8098 19.4 25.8182H20.6ZM21.7131 19.8617C20.916 20.2679 20.2679 20.916 19.8617 21.7131L20.9309 22.2579C21.2221 21.6866 21.6866 21.2221 22.2579 20.9309L21.7131 19.8617ZM23.2121 26.2424L25.1368 28.1671L25.9853 27.3186L24.0606 25.3939L23.2121 26.2424ZM25.1368 27.8329L23.2121 29.7576L24.0606 30.6061L25.9853 28.6814L25.1368 27.8329ZM25.1368 28.1671C25.0445 28.0748 25.0445 27.9252 25.1368 27.8329L25.9853 28.6814C26.3616 28.3051 26.3616 27.6949 25.9853 27.3186L25.1368 28.1671ZM28 25.6909H32.3636V24.4909L28 24.4909V25.6909ZM29.4545 28.6H32.3636V27.4H29.4545V28.6ZM28 31.5091L32.3636 31.5091V30.3091L28 30.3091V31.5091Z" fill="#FBFBFC"/>
</svg>
