<svg width="22" height="24" viewBox="0 0 22 24" fill="none" xmlns="http://www.w3.org/2000/svg">
<path d="M15.0422 9.44083L10.9605 2.30108C10.6896 1.82817 10.2438 1.48322 9.72124 1.34204C9.19863 1.20086 8.6419 1.275 8.17339 1.54817C7.70489 1.82133 7.36295 2.27117 7.22271 2.79883C7.08248 3.32648 7.15542 3.88878 7.42552 4.36215L10.0787 9.00299L6.60917 2.9342C6.47528 2.69956 6.29692 2.49386 6.08428 2.32887C5.87164 2.16388 5.62889 2.04282 5.36989 1.97262C5.1109 1.90242 4.84075 1.88445 4.57488 1.91974C4.30901 1.95504 4.05263 2.0429 3.8204 2.1783C3.58817 2.3137 3.38464 2.494 3.22144 2.70888C3.05824 2.92376 2.93857 3.16902 2.86928 3.43063C2.79998 3.69224 2.78242 3.96507 2.81758 4.23354C2.85275 4.50201 2.93997 4.76085 3.07424 4.99527L6.95193 11.778L5.11512 8.56514C4.84424 8.09224 4.39852 7.74729 3.87591 7.60611C3.3533 7.46493 2.79657 7.53907 2.32807 7.81223C1.85956 8.0854 1.51762 8.53524 1.37738 9.0629C1.23715 9.59055 1.3101 10.1528 1.5802 10.6262L5.45789 17.409C5.99379 18.3468 6.70738 19.1689 7.55791 19.8282C8.40844 20.4875 9.37925 20.9712 10.4149 21.2516C11.4505 21.5319 12.5307 21.6035 13.5938 21.4622C14.6568 21.321 15.6819 20.9696 16.6104 20.4282C17.539 19.8868 18.3529 19.166 19.0055 18.3069C19.6582 17.4478 20.1369 16.4673 20.4143 15.4213C20.6917 14.3754 20.7623 13.2845 20.6222 12.211C20.4821 11.1374 20.1339 10.1023 19.5976 9.1647L17.5567 5.59482C17.4228 5.36018 17.2445 5.15449 17.0318 4.9895C16.8192 4.82451 16.5764 4.70345 16.3174 4.63325C16.0585 4.56305 15.7883 4.54508 15.5224 4.58037C15.2566 4.61567 15.0002 4.70352 14.768 4.83893C14.5357 4.97433 14.3322 5.15463 14.169 5.36951C14.0058 5.58439 13.8861 5.82965 13.8168 6.09126C13.7475 6.35287 13.73 6.6257 13.7651 6.89417C13.8003 7.16264 13.8875 7.42148 14.0218 7.65589L15.0422 9.44083ZM15.0422 9.44083C14.1047 9.98746 13.4206 10.8878 13.1404 11.9438C12.8602 12.9998 13.0069 14.125 13.5482 15.0718M6.10923 22.7692C4.72555 21.7997 3.57214 20.5322 2.73215 19.0581M15.7939 1.23077C16.7253 1.23065 17.6403 1.47826 18.4469 1.9487C19.2535 2.41913 19.9231 3.0958 20.3885 3.91061" stroke="#1C1C1C" stroke-linecap="round" stroke-linejoin="round"/>
</svg>
