<svg width="56" height="56" viewBox="0 0 56 56" fill="none" xmlns="http://www.w3.org/2000/svg">
<rect x="0.5" y="0.5" width="55" height="55" rx="27.5" stroke="#FBFBFC" stroke-opacity="0.06"/>
<path d="M25.5 22.1667H23.1667C22.2332 22.1667 21.7665 22.1667 21.41 22.3483C21.0964 22.5081 20.8414 22.7631 20.6817 23.0767C20.5 23.4332 20.5 23.8999 20.5 24.8333V32.8333C20.5 33.7668 20.5 34.2335 20.6817 34.59C20.8414 34.9036 21.0964 35.1586 21.41 35.3183C21.7665 35.5 22.2332 35.5 23.1667 35.5H25.5M25.5 22.1667H30.5M25.5 22.1667V21.75C25.5 21.0596 24.9404 20.5 24.25 20.5C23.5596 20.5 23 21.0596 23 21.75V22.1667M30.5 22.1667H32.8333C33.7668 22.1667 34.2335 22.1667 34.59 22.3483C34.9036 22.5081 35.1586 22.7631 35.3183 23.0767C35.5 23.4332 35.5 23.8999 35.5 24.8333V27.1667M30.5 22.1667V21.75C30.5 21.0596 31.0596 20.5 31.75 20.5C32.4404 20.5 33 21.0596 33 21.75V22.1667M28.8333 35.5V32.1667M32.1667 35.5V29.6667M35.5 35.5V32.1667" stroke="#FBFBFC" stroke-width="1.2" stroke-linecap="round"/>
</svg>
