<svg width="20" height="20" viewBox="0 0 20 20" fill="none" xmlns="http://www.w3.org/2000/svg">
<path d="M12.2897 17.0589C11.6837 17.6446 10.8877 18 10.0159 18C9.14413 18 8.34813 17.6446 7.74213 17.0589M15.1702 10.6408V7.64709C15.1702 4.52022 12.8712 2 10.0159 2C7.1607 2 4.83051 4.41278 4.83051 7.64709V10.6205C4.83051 11.0753 4.76579 11.5271 4.63884 11.9585L4.00419 14.1152C3.98682 14.1742 4.02562 14.2352 4.08057 14.2352H15.9143C15.9724 14.2352 16.0136 14.1732 15.9958 14.1127L15.3568 11.9413C15.2332 11.5211 15.1702 11.0823 15.1702 10.6408Z" stroke="white" stroke-linecap="round"/>
</svg>
