<svg width="20" height="20" viewBox="0 0 20 20" fill="none" xmlns="http://www.w3.org/2000/svg">
<path d="M9.07094 8.66667C9.07094 8.39052 8.84708 8.16667 8.57094 8.16667C8.2948 8.16667 8.07094 8.39052 8.07094 8.66667H9.07094ZM8.07094 14C8.07094 14.2761 8.2948 14.5 8.57094 14.5C8.84708 14.5 9.07094 14.2761 9.07094 14H8.07094ZM11.9281 8.66667C11.9281 8.39052 11.7042 8.16667 11.4281 8.16667C11.1519 8.16667 10.9281 8.39052 10.9281 8.66667H11.9281ZM10.9281 14C10.9281 14.2761 11.1519 14.5 11.4281 14.5C11.7042 14.5 11.9281 14.2761 11.9281 14H10.9281ZM6.49381 15.8547L6.70854 15.4031L6.49381 15.8547ZM5.8695 15.272L6.30836 15.0324H6.30836L5.8695 15.272ZM14.1295 15.272L13.6907 15.0324L14.1295 15.272ZM13.5052 15.8547L13.2905 15.4031H13.2905L13.5052 15.8547ZM4.99951 6.16667C4.72337 6.16667 4.49951 6.39052 4.49951 6.66667C4.49951 6.94281 4.72337 7.16667 4.99951 7.16667V6.16667ZM14.9995 7.16667C15.2757 7.16667 15.4995 6.94281 15.4995 6.66667C15.4995 6.39052 15.2757 6.16667 14.9995 6.16667V7.16667ZM6.99951 6.66667C6.99951 6.94281 7.22337 7.16667 7.49951 7.16667C7.77565 7.16667 7.99951 6.94281 7.99951 6.66667H6.99951ZM11.9995 6.66667C11.9995 6.94281 12.2234 7.16667 12.4995 7.16667C12.7757 7.16667 12.9995 6.94281 12.9995 6.66667H11.9995ZM8.07094 8.66667V14H9.07094V8.66667H8.07094ZM10.9281 8.66667V14H11.9281V8.66667H10.9281ZM13.7852 6.66667V13.8667H14.7852V6.66667H13.7852ZM11.9995 15.5H7.99951V16.5H11.9995V15.5ZM5.2138 6.66667V13.8667H6.2138V6.66667H5.2138ZM7.99951 15.5C7.59177 15.5 7.31404 15.4997 7.09925 15.4833C6.88936 15.4673 6.78224 15.4382 6.70854 15.4031L6.27908 16.3062C6.51097 16.4165 6.75667 16.4601 7.02321 16.4804C7.28486 16.5003 7.60718 16.5 7.99951 16.5V15.5ZM5.2138 13.8667C5.2138 14.2312 5.21335 14.5368 5.23517 14.786C5.25759 15.0421 5.30629 15.2838 5.43064 15.5116L6.30836 15.0324C6.27701 14.975 6.24786 14.8873 6.23136 14.6988C6.21424 14.5033 6.2138 14.2489 6.2138 13.8667H5.2138ZM6.70854 15.4031C6.53072 15.3186 6.39264 15.1868 6.30836 15.0324L5.43064 15.5116C5.62029 15.859 5.91929 16.1351 6.27908 16.3062L6.70854 15.4031ZM13.7852 13.8667C13.7852 14.2489 13.7848 14.5033 13.7677 14.6988C13.7512 14.8873 13.722 14.975 13.6907 15.0324L14.5684 15.5116C14.6927 15.2838 14.7414 15.0421 14.7639 14.786C14.7857 14.5368 14.7852 14.2312 14.7852 13.8667H13.7852ZM11.9995 16.5C12.3918 16.5 12.7142 16.5003 12.9758 16.4804C13.2424 16.4601 13.4881 16.4165 13.7199 16.3062L13.2905 15.4031C13.2168 15.4382 13.1097 15.4673 12.8998 15.4833C12.685 15.4997 12.4073 15.5 11.9995 15.5V16.5ZM13.6907 15.0324C13.6064 15.1868 13.4683 15.3186 13.2905 15.4031L13.7199 16.3062C14.0797 16.1351 14.3787 15.859 14.5684 15.5116L13.6907 15.0324ZM4.99951 7.16667H5.7138V6.16667H4.99951V7.16667ZM5.7138 7.16667H14.2852V6.16667H5.7138V7.16667ZM14.2852 7.16667H14.9995V6.16667H14.2852V7.16667ZM7.99951 6.13333C7.99951 5.30271 8.81763 4.5 9.99951 4.5V3.5C8.41997 3.5 6.99951 4.60754 6.99951 6.13333H7.99951ZM9.99951 4.5C11.1814 4.5 11.9995 5.30271 11.9995 6.13333H12.9995C12.9995 4.60754 11.579 3.5 9.99951 3.5V4.5ZM6.99951 6.13333V6.66667H7.99951V6.13333H6.99951ZM11.9995 6.13333V6.66667H12.9995V6.13333H11.9995Z" fill="#FF7070"/>
</svg>
