<svg width="20" height="20" viewBox="0 0 20 20" fill="none" xmlns="http://www.w3.org/2000/svg">
<path d="M4.34117 13.9716L4.81551 14.1297L4.34117 13.9716ZM4.96558 12.0983L5.43992 12.2564H5.43992L4.96558 12.0983ZM5.60987 11.0558L5.96342 11.4094L5.60987 11.0558ZM10.0559 6.60984L10.4094 6.96339L10.0559 6.60984ZM11.9418 6.60984L11.5882 6.96339L11.5882 6.96339L11.9418 6.60984ZM13.3897 8.05776L13.7432 7.7042L13.3897 8.05776ZM13.3897 9.94364L13.7432 10.2972L13.3897 9.94364ZM8.94367 14.3896L8.59011 14.0361L8.59011 14.0361L8.94367 14.3896ZM7.90118 15.0339L8.05929 15.5083H8.05929L7.90118 15.0339ZM6.02795 15.6583L6.18606 16.1327H6.18606L6.02795 15.6583ZM8.60191 14.7086L8.30079 14.3095L8.30079 14.3095L8.60191 14.7086ZM8.33932 14.8709L8.11697 14.4231L8.33932 14.8709ZM13.9466 8.74314L14.4221 8.58864V8.58863L13.9466 8.74314ZM13.9466 9.25824L14.4221 9.41276L14.4221 9.41275L13.9466 9.25824ZM10.7413 6.05292L10.5868 5.57739L10.5868 5.57739L10.7413 6.05292ZM11.2564 6.05292L11.4109 5.57739L11.2564 6.05292ZM5.12859 11.6602L5.57643 11.8825L5.57643 11.8825L5.12859 11.6602ZM5.29089 11.3976L4.89173 11.0965L4.89173 11.0965L5.29089 11.3976ZM4.03054 15.4639L3.55959 15.6318L4.03054 15.4639ZM4.53563 15.969L4.36769 16.4399H4.3677L4.53563 15.969ZM13.0193 3.64645C12.824 3.45118 12.5074 3.45118 12.3122 3.64645C12.1169 3.84171 12.1169 4.15829 12.3122 4.35355L13.0193 3.64645ZM15.646 7.68735C15.8412 7.88261 16.1578 7.88261 16.3531 7.68735C16.5483 7.49209 16.5483 7.17551 16.3531 6.98024L15.646 7.68735ZM4.81551 14.1297L5.43992 12.2564L4.49123 11.9402L3.86682 13.8134L4.81551 14.1297ZM5.96342 11.4094L10.4094 6.96339L9.70232 6.25628L5.25632 10.7023L5.96342 11.4094ZM11.5882 6.96339L13.0361 8.41131L13.7432 7.7042L12.2953 6.25629L11.5882 6.96339ZM13.0361 9.59008L8.59011 14.0361L9.29722 14.7432L13.7432 10.2972L13.0361 9.59008ZM7.74306 14.5596L5.86983 15.184L6.18606 16.1327L8.05929 15.5083L7.74306 14.5596ZM8.59011 14.0361C8.41464 14.2116 8.35933 14.2653 8.30079 14.3095L8.90303 15.1078C9.0299 15.0121 9.14062 14.8998 9.29722 14.7432L8.59011 14.0361ZM8.05929 15.5083C8.26939 15.4382 8.41934 15.3894 8.56167 15.3188L8.11697 14.4231C8.0513 14.4557 7.97848 14.4811 7.74306 14.5596L8.05929 15.5083ZM8.30079 14.3095C8.24317 14.3529 8.18163 14.391 8.11697 14.4231L8.56167 15.3188C8.68174 15.2591 8.79602 15.1885 8.90304 15.1078L8.30079 14.3095ZM13.0361 8.41131C13.207 8.58217 13.3136 8.68933 13.3876 8.77645C13.4577 8.8591 13.4687 8.89028 13.4711 8.89766L14.4221 8.58863C14.3627 8.40571 14.2602 8.25922 14.1499 8.12927C14.0434 8.00378 13.9024 7.8634 13.7432 7.7042L13.0361 8.41131ZM13.7432 10.2972C13.9024 10.138 14.0434 9.99761 14.1499 9.87212C14.2602 9.74217 14.3627 9.59568 14.4221 9.41276L13.4711 9.10373C13.4687 9.11111 13.4577 9.14229 13.3876 9.22494C13.3136 9.31206 13.207 9.41922 13.0361 9.59008L13.7432 10.2972ZM13.4711 8.89765C13.4928 8.96462 13.4928 9.03677 13.4711 9.10374L14.4221 9.41275C14.5091 9.14494 14.5091 8.85645 14.4221 8.58864L13.4711 8.89765ZM10.4094 6.96339C10.5803 6.79253 10.6875 6.68592 10.7746 6.61196C10.8572 6.5418 10.8884 6.53084 10.8958 6.52844L10.5868 5.57739C10.4038 5.63682 10.2573 5.7393 10.1274 5.84962C10.0019 5.95615 9.86152 6.09709 9.70232 6.25628L10.4094 6.96339ZM12.2953 6.25629C12.1361 6.09709 11.9957 5.95615 11.8702 5.84962C11.7403 5.7393 11.5938 5.63682 11.4109 5.57739L11.1019 6.52844C11.1092 6.53084 11.1404 6.5418 11.2231 6.61196C11.3102 6.68592 11.4173 6.79253 11.5882 6.96339L12.2953 6.25629ZM10.8958 6.52844C10.9627 6.50668 11.0349 6.50668 11.1019 6.52844L11.4109 5.57739C11.1431 5.49037 10.8546 5.49037 10.5868 5.57739L10.8958 6.52844ZM5.43992 12.2564C5.51839 12.021 5.54383 11.9482 5.57643 11.8825L4.68075 11.4378C4.61009 11.5802 4.56127 11.7301 4.49123 11.9402L5.43992 12.2564ZM5.25632 10.7023C5.09972 10.8589 4.98743 10.9696 4.89173 11.0965L5.69004 11.6987C5.7342 11.6402 5.78795 11.5849 5.96342 11.4094L5.25632 10.7023ZM5.57643 11.8825C5.60853 11.8179 5.64657 11.7563 5.69004 11.6987L4.89173 11.0965C4.811 11.2035 4.74037 11.3178 4.68075 11.4378L5.57643 11.8825ZM3.86682 13.8134C3.73425 14.2112 3.62337 14.5422 3.56111 14.8072C3.50059 15.0647 3.46059 15.3542 3.55959 15.6318L4.5015 15.2959C4.50394 15.3028 4.48352 15.2533 4.53459 15.0359C4.58392 14.826 4.67663 14.5463 4.81551 14.1297L3.86682 13.8134ZM5.86983 15.184C5.4532 15.3229 5.1735 15.4156 4.96357 15.4649C4.74623 15.516 4.69673 15.4956 4.70357 15.498L4.3677 16.4399C4.64532 16.5389 4.9348 16.4989 5.19232 16.4384C5.45727 16.3761 5.78834 16.2653 6.18606 16.1327L5.86983 15.184ZM3.55959 15.6318C3.69403 16.0088 3.9907 16.3055 4.36769 16.4399L4.70358 15.498C4.6093 15.4644 4.53511 15.3902 4.5015 15.2959L3.55959 15.6318ZM12.3122 4.35355L15.646 7.68735L16.3531 6.98024L13.0193 3.64645L12.3122 4.35355Z" fill="white"/>
</svg>
